<?xml version="1.0" encoding="UTF-8" standalone="no"?>
<!-- Created with Inkscape (http://www.inkscape.org/) -->

<svg
   xmlns:dc="http://purl.org/dc/elements/1.1/"
   xmlns:cc="http://creativecommons.org/ns#"
   xmlns:rdf="http://www.w3.org/1999/02/22-rdf-syntax-ns#"
   xmlns:svg="http://www.w3.org/2000/svg"
   xmlns="http://www.w3.org/2000/svg"
   xmlns:sodipodi="http://sodipodi.sourceforge.net/DTD/sodipodi-0.dtd"
   xmlns:inkscape="http://www.inkscape.org/namespaces/inkscape"
   width="744.09448819"
   height="1052.3622047"
   id="svg3381"
   version="1.1"
   inkscape:version="0.47 r22583"
   sodipodi:docname="GraphicsDesign.svg"
   inkscape:export-filename="/home/cobalt/Dropbox/Cobalt Labs/Portfolio/art.png"
   inkscape:export-xdpi="90"
   inkscape:export-ydpi="90">
  <defs
     id="defs3383">
    <inkscape:perspective
       sodipodi:type="inkscape:persp3d"
       inkscape:vp_x="0 : 526.18109 : 1"
       inkscape:vp_y="0 : 1000 : 0"
       inkscape:vp_z="744.09448 : 526.18109 : 1"
       inkscape:persp3d-origin="372.04724 : 350.78739 : 1"
       id="perspective3389" />
    <inkscape:perspective
       id="perspective3311"
       inkscape:persp3d-origin="0.5 : 0.33333333 : 1"
       inkscape:vp_z="1 : 0.5 : 1"
       inkscape:vp_y="0 : 1000 : 0"
       inkscape:vp_x="0 : 0.5 : 1"
       sodipodi:type="inkscape:persp3d" />
    <filter
       id="filter4417"
       inkscape:label="Pencil"
       x="0"
       y="0"
       width="1"
       height="1"
       inkscape:menu="Image effects"
       inkscape:menu-tooltip="Detect color edges and retrace them in grayscale"
       color-interpolation-filters="sRGB">
      <feConvolveMatrix
         id="feConvolveMatrix4419"
         bias="0"
         result="result0"
         preserveAlpha="true"
         targetY="1"
         targetX="1"
         divisor="1"
         in="SourceGraphic"
         kernelMatrix="1 1 1 1 -8 1 1 1 1"
         order="3 3" />
      <feColorMatrix
         id="feColorMatrix4421"
         values="-0.15 -0.3 -0.05 0 1 -0.15 -0.3 -0.05 0 1 -0.15 -0.3 -0.05 0 1 0 0 0 1 0"
         result="result3" />
    </filter>
    <inkscape:perspective
       id="perspective4312"
       inkscape:persp3d-origin="0.5 : 0.33333333 : 1"
       inkscape:vp_z="1 : 0.5 : 1"
       inkscape:vp_y="0 : 1000 : 0"
       inkscape:vp_x="0 : 0.5 : 1"
       sodipodi:type="inkscape:persp3d" />
    <inkscape:perspective
       id="perspective4335"
       inkscape:persp3d-origin="0.5 : 0.33333333 : 1"
       inkscape:vp_z="1 : 0.5 : 1"
       inkscape:vp_y="0 : 1000 : 0"
       inkscape:vp_x="0 : 0.5 : 1"
       sodipodi:type="inkscape:persp3d" />
    <inkscape:perspective
       id="perspective4385"
       inkscape:persp3d-origin="0.5 : 0.33333333 : 1"
       inkscape:vp_z="1 : 0.5 : 1"
       inkscape:vp_y="0 : 1000 : 0"
       inkscape:vp_x="0 : 0.5 : 1"
       sodipodi:type="inkscape:persp3d" />
    <inkscape:perspective
       id="perspective4416"
       inkscape:persp3d-origin="0.5 : 0.33333333 : 1"
       inkscape:vp_z="1 : 0.5 : 1"
       inkscape:vp_y="0 : 1000 : 0"
       inkscape:vp_x="0 : 0.5 : 1"
       sodipodi:type="inkscape:persp3d" />
    <inkscape:perspective
       id="perspective4441"
       inkscape:persp3d-origin="0.5 : 0.33333333 : 1"
       inkscape:vp_z="1 : 0.5 : 1"
       inkscape:vp_y="0 : 1000 : 0"
       inkscape:vp_x="0 : 0.5 : 1"
       sodipodi:type="inkscape:persp3d" />
    <inkscape:perspective
       id="perspective4466"
       inkscape:persp3d-origin="0.5 : 0.33333333 : 1"
       inkscape:vp_z="1 : 0.5 : 1"
       inkscape:vp_y="0 : 1000 : 0"
       inkscape:vp_x="0 : 0.5 : 1"
       sodipodi:type="inkscape:persp3d" />
    <inkscape:perspective
       id="perspective4512"
       inkscape:persp3d-origin="0.5 : 0.33333333 : 1"
       inkscape:vp_z="1 : 0.5 : 1"
       inkscape:vp_y="0 : 1000 : 0"
       inkscape:vp_x="0 : 0.5 : 1"
       sodipodi:type="inkscape:persp3d" />
    <filter
       id="filter3364"
       inkscape:label="Roughen"
       inkscape:menu="ABCs"
       inkscape:menu-tooltip="Small-scale roughening to edges and content"
       color-interpolation-filters="sRGB">
      <feTurbulence
         id="feTurbulence3366"
         numOctaves="3"
         seed="0"
         type="turbulence"
         baseFrequency="0.04"
         result="result91" />
      <feDisplacementMap
         id="feDisplacementMap3368"
         in2="result91"
         scale="6.6"
         yChannelSelector="G"
         xChannelSelector="R"
         in="SourceGraphic" />
    </filter>
    <filter
       id="filter3370"
       inkscape:label="Roughen"
       inkscape:menu="ABCs"
       inkscape:menu-tooltip="Small-scale roughening to edges and content"
       color-interpolation-filters="sRGB">
      <feTurbulence
         id="feTurbulence3372"
         numOctaves="3"
         seed="0"
         type="turbulence"
         baseFrequency="0.04"
         result="result91" />
      <feDisplacementMap
         id="feDisplacementMap3374"
         in2="result91"
         scale="6.6"
         yChannelSelector="G"
         xChannelSelector="R"
         in="SourceGraphic" />
    </filter>
    <filter
       id="filter3376"
       inkscape:label="Roughen"
       inkscape:menu="ABCs"
       inkscape:menu-tooltip="Small-scale roughening to edges and content"
       color-interpolation-filters="sRGB">
      <feTurbulence
         id="feTurbulence3378"
         numOctaves="3"
         seed="0"
         type="turbulence"
         baseFrequency="0.04"
         result="result91" />
      <feDisplacementMap
         id="feDisplacementMap3380"
         in2="result91"
         scale="6.6"
         yChannelSelector="G"
         xChannelSelector="R"
         in="SourceGraphic" />
    </filter>
    <filter
       id="filter3382"
       inkscape:label="Roughen"
       inkscape:menu="ABCs"
       inkscape:menu-tooltip="Small-scale roughening to edges and content"
       color-interpolation-filters="sRGB">
      <feTurbulence
         id="feTurbulence3384"
         numOctaves="3"
         seed="0"
         type="turbulence"
         baseFrequency="0.04"
         result="result91" />
      <feDisplacementMap
         id="feDisplacementMap3386"
         in2="result91"
         scale="6.6"
         yChannelSelector="G"
         xChannelSelector="R"
         in="SourceGraphic" />
    </filter>
    <filter
       id="filter3388"
       inkscape:label="Roughen"
       inkscape:menu="ABCs"
       inkscape:menu-tooltip="Small-scale roughening to edges and content"
       color-interpolation-filters="sRGB">
      <feTurbulence
         id="feTurbulence3390"
         numOctaves="3"
         seed="0"
         type="turbulence"
         baseFrequency="0.04"
         result="result91" />
      <feDisplacementMap
         id="feDisplacementMap3392"
         in2="result91"
         scale="6.6"
         yChannelSelector="G"
         xChannelSelector="R"
         in="SourceGraphic" />
    </filter>
    <filter
       id="filter3358"
       inkscape:label="Roughen"
       inkscape:menu="ABCs"
       inkscape:menu-tooltip="Small-scale roughening to edges and content"
       color-interpolation-filters="sRGB">
      <feTurbulence
         id="feTurbulence3360"
         numOctaves="3"
         seed="0"
         type="turbulence"
         baseFrequency="0.04"
         result="result91" />
      <feDisplacementMap
         in2="result91"
         id="feDisplacementMap3362"
         scale="6.6"
         yChannelSelector="G"
         xChannelSelector="R"
         in="SourceGraphic" />
    </filter>
    <inkscape:perspective
       id="perspective4802"
       inkscape:persp3d-origin="0.5 : 0.33333333 : 1"
       inkscape:vp_z="1 : 0.5 : 1"
       inkscape:vp_y="0 : 1000 : 0"
       inkscape:vp_x="0 : 0.5 : 1"
       sodipodi:type="inkscape:persp3d" />
    <inkscape:perspective
       id="perspective4835"
       inkscape:persp3d-origin="0.5 : 0.33333333 : 1"
       inkscape:vp_z="1 : 0.5 : 1"
       inkscape:vp_y="0 : 1000 : 0"
       inkscape:vp_x="0 : 0.5 : 1"
       sodipodi:type="inkscape:persp3d" />
    <inkscape:perspective
       id="perspective4857"
       inkscape:persp3d-origin="0.5 : 0.33333333 : 1"
       inkscape:vp_z="1 : 0.5 : 1"
       inkscape:vp_y="0 : 1000 : 0"
       inkscape:vp_x="0 : 0.5 : 1"
       sodipodi:type="inkscape:persp3d" />
    <inkscape:perspective
       id="perspective3311-4"
       inkscape:persp3d-origin="0.5 : 0.33333333 : 1"
       inkscape:vp_z="1 : 0.5 : 1"
       inkscape:vp_y="0 : 1000 : 0"
       inkscape:vp_x="0 : 0.5 : 1"
       sodipodi:type="inkscape:persp3d" />
    <filter
       id="filter3359"
       inkscape:label="Frost"
       inkscape:menu="Overlays"
       inkscape:menu-tooltip="Flake-like white splotches"
       color-interpolation-filters="sRGB">
      <feTurbulence
         id="feTurbulence3361"
         type="fractalNoise"
         numOctaves="5"
         baseFrequency="0.143" />
      <feColorMatrix
         id="feColorMatrix3363"
         values="1 0 0 0 0 0 1 0 0 0 0 0 1 0 0 0 0 0 5 -3"
         result="result1" />
      <feComposite
         id="feComposite3365"
         in2="SourceAlpha"
         operator="in" />
      <feMorphology
         id="feMorphology3367"
         operator="dilate"
         radius="2.7"
         result="result3" />
      <feTurbulence
         id="feTurbulence3369"
         numOctaves="2"
         baseFrequency="0.121"
         result="result91" />
      <feDisplacementMap
         id="feDisplacementMap3371"
         in2="result91"
         in="result3"
         xChannelSelector="R"
         yChannelSelector="A"
         scale="10"
         result="result4" />
      <feFlood
         id="feFlood3373"
         flood-opacity="1"
         flood-color="rgb(255,255,255)"
         result="result92" />
      <feComposite
         id="feComposite3375"
         in2="result4"
         result="result2"
         operator="in" />
      <feComposite
         id="feComposite3377"
         in2="SourceGraphic"
         in="result2"
         operator="over"
         result="fbSourceGraphic" />
      <feColorMatrix
         result="fbSourceGraphicAlpha"
         in="fbSourceGraphic"
         values="0 0 0 -1 0 0 0 0 -1 0 0 0 0 -1 0 0 0 0 1 0"
         id="feColorMatrix3028" />
      <feTurbulence
         id="feTurbulence3030"
         type="fractalNoise"
         numOctaves="5"
         baseFrequency="0.143"
         in="fbSourceGraphic" />
      <feColorMatrix
         id="feColorMatrix3032"
         values="1 0 0 0 0 0 1 0 0 0 0 0 1 0 0 0 0 0 5 -3"
         result="result93" />
      <feComposite
         id="feComposite3034"
         in2="fbSourceGraphicAlpha"
         operator="in" />
      <feMorphology
         id="feMorphology3036"
         operator="dilate"
         radius="2.7"
         result="result3" />
      <feTurbulence
         id="feTurbulence3038"
         numOctaves="2"
         baseFrequency="0.121"
         result="result91" />
      <feDisplacementMap
         id="feDisplacementMap3040"
         in2="result91"
         in="result3"
         xChannelSelector="R"
         yChannelSelector="A"
         scale="10"
         result="result4" />
      <feFlood
         id="feFlood3042"
         flood-opacity="1"
         flood-color="rgb(255,255,255)"
         result="result94" />
      <feComposite
         id="feComposite3044"
         in2="result4"
         result="result2"
         operator="in" />
      <feComposite
         id="feComposite3046"
         in2="fbSourceGraphic"
         in="result2"
         operator="over" />
    </filter>
    <inkscape:perspective
       id="perspective3371"
       inkscape:persp3d-origin="0.5 : 0.33333333 : 1"
       inkscape:vp_z="1 : 0.5 : 1"
       inkscape:vp_y="0 : 1000 : 0"
       inkscape:vp_x="0 : 0.5 : 1"
       sodipodi:type="inkscape:persp3d" />
    <inkscape:perspective
       id="perspective3972"
       inkscape:persp3d-origin="0.5 : 0.33333333 : 1"
       inkscape:vp_z="1 : 0.5 : 1"
       inkscape:vp_y="0 : 1000 : 0"
       inkscape:vp_x="0 : 0.5 : 1"
       sodipodi:type="inkscape:persp3d" />
  </defs>
  <sodipodi:namedview
     id="base"
     pagecolor="#ffffff"
     bordercolor="#666666"
     borderopacity="1.0"
     inkscape:pageopacity="0.0"
     inkscape:pageshadow="2"
     inkscape:zoom="0.98994949"
     inkscape:cx="474.81166"
     inkscape:cy="465.9335"
     inkscape:document-units="px"
     inkscape:current-layer="layer1"
     showgrid="false"
     inkscape:window-width="1280"
     inkscape:window-height="728"
     inkscape:window-x="0"
     inkscape:window-y="24"
     inkscape:window-maximized="1"
     showguides="true"
     inkscape:guide-bbox="true" />
  <metadata
     id="metadata3386">
    <rdf:RDF>
      <cc:Work
         rdf:about="">
        <dc:format>image/svg+xml</dc:format>
        <dc:type
           rdf:resource="http://purl.org/dc/dcmitype/StillImage" />
        <dc:title></dc:title>
      </cc:Work>
    </rdf:RDF>
  </metadata>
  <g
     inkscape:groupmode="layer"
     id="layer2"
     inkscape:label="Background"
     sodipodi:insensitive="true">
    <rect
       style="fill:#1d1d1d;fill-opacity:1;stroke:none"
       id="rect3530"
       width="808.57141"
       height="625.71429"
       x="-24.2857"
       y="245.21931" />
  </g>
  <g
     inkscape:label="Layer 1"
     inkscape:groupmode="layer"
     id="layer1">
    <text
       xml:space="preserve"
       style="font-size:28.20875549px;font-style:normal;font-weight:normal;fill:#ececec;fill-opacity:1;stroke:none;font-family:Bitstream Vera Sans"
       x="197.35938"
       y="472.99344"
       id="text4505"
       inkscape:export-filename="/home/cobalt/Dropbox/Cobalt Labs/Portfolio/test1.png"
       inkscape:export-xdpi="90"
       inkscape:export-ydpi="90"><tspan
         sodipodi:role="line"
         id="tspan4507"
         x="197.35938"
         y="472.99344"
         style="font-style:normal;font-variant:normal;font-weight:normal;font-stretch:normal;fill:#ececec;font-family:BPdots;-inkscape-font-specification:BPdots">Graphics</tspan></text>
    <text
       xml:space="preserve"
       style="font-size:28.20875549px;font-style:normal;font-weight:normal;fill:#f2f2f2;fill-opacity:1;stroke:none;font-family:Bitstream Vera Sans"
       x="269.35156"
       y="512.11902"
       id="text4509"
       inkscape:export-filename="/home/cobalt/Dropbox/Cobalt Labs/Portfolio/test1.png"
       inkscape:export-xdpi="90"
       inkscape:export-ydpi="90"><tspan
         sodipodi:role="line"
         id="tspan4511"
         x="269.35156"
         y="512.11902"
         style="font-style:normal;font-variant:normal;font-weight:normal;font-stretch:normal;fill:#f2f2f2;font-family:BPdotsSquares;-inkscape-font-specification:BPdotsSquares">Web</tspan></text>
    <text
       xml:space="preserve"
       style="font-size:78.01898956px;font-style:normal;font-weight:normal;fill:#000000;fill-opacity:1;stroke:none;filter:url(#filter3359);font-family:Bitstream Vera Sans"
       x="325.88867"
       y="511.25592"
       id="text4513"
       inkscape:export-filename="/home/cobalt/Dropbox/Cobalt Labs/Portfolio/test1.png"
       inkscape:export-xdpi="90"
       inkscape:export-ydpi="90"><tspan
         sodipodi:role="line"
         id="tspan4515"
         x="325.88867"
         y="511.25592"
         style="font-style:normal;font-variant:normal;font-weight:normal;font-stretch:normal;fill:#000000;font-family:Destroy;-inkscape-font-specification:Destroy" /></text>
    <text
       xml:space="preserve"
       style="font-size:13.52356625px;font-style:normal;font-weight:normal;fill:#cccccc;fill-opacity:1;stroke:none;font-family:Bitstream Vera Sans"
       x="299.69891"
       y="487.11804"
       id="text4521"
       inkscape:export-filename="/home/cobalt/Dropbox/Cobalt Labs/Portfolio/test1.png"
       inkscape:export-xdpi="90"
       inkscape:export-ydpi="90"><tspan
         sodipodi:role="line"
         id="tspan4523"
         x="299.69891"
         y="487.11804">&amp;</tspan></text>
    <path
       sodipodi:type="arc"
       style="fill:#55d400;stroke:#000000;stroke-width:1.60000002;stroke-miterlimit:4;stroke-opacity:1;stroke-dasharray:none"
       id="path4557-0"
       sodipodi:cx="609.46429"
       sodipodi:cy="909.68359"
       sodipodi:rx="3.3928571"
       sodipodi:ry="3.3928571"
       d="m 612.85715,909.68359 a 3.3928571,3.3928571 0 1 1 -6.78571,0 3.3928571,3.3928571 0 1 1 6.78571,0 z"
       transform="translate(-238.76086,-351.5292)"
       inkscape:export-filename="/home/cobalt/Dropbox/Cobalt Labs/Portfolio/test1.png"
       inkscape:export-xdpi="90"
       inkscape:export-ydpi="90" />
    <g
       id="g3195"
       transform="translate(-74.77132,-193.25829)"
       inkscape:export-filename="/home/cobalt/Dropbox/Cobalt Labs/Portfolio/test1.png"
       inkscape:export-xdpi="90"
       inkscape:export-ydpi="90">
      <path
         transform="translate(-153.39095,-183.86807)"
         d="m 608.57144,917.7193 c 0,8.48152 -6.87563,15.35714 -15.35715,15.35714 -8.48151,0 -15.35714,-6.87562 -15.35714,-15.35714 0,-8.48152 6.87563,-15.35714 15.35714,-15.35714 8.48152,0 15.35715,6.87562 15.35715,15.35714 z"
         sodipodi:ry="15.357143"
         sodipodi:rx="15.357143"
         sodipodi:cy="917.7193"
         sodipodi:cx="593.21429"
         id="path4555"
         style="fill:#28170b;stroke:#000000;stroke-width:1.60000002;stroke-miterlimit:4;stroke-opacity:1;stroke-dasharray:none"
         sodipodi:type="arc" />
      <path
         transform="translate(-153.39095,-185.86807)"
         d="m 605.71429,918.07648 c 0,5.52284 -4.47715,10 -10,10 -5.52284,0 -10,-4.47716 -10,-10 0,-5.52285 4.47716,-10 10,-10 5.52285,0 10,4.47715 10,10 z"
         sodipodi:ry="10"
         sodipodi:rx="10"
         sodipodi:cy="918.07648"
         sodipodi:cx="595.71429"
         id="path4547"
         style="fill:#d38d5f;stroke:#000000;stroke-width:1.60000002;stroke-miterlimit:4;stroke-opacity:1;stroke-dasharray:none"
         sodipodi:type="arc" />
      <path
         transform="translate(-153.39095,-185.86807)"
         d="m 600.71429,919.32648 c 0,2.46555 -1.99873,4.46428 -4.46429,4.46428 -2.46556,0 -4.46429,-1.99873 -4.46429,-4.46428 0,-2.46556 1.99873,-4.46429 4.46429,-4.46429 2.46556,0 4.46429,1.99873 4.46429,4.46429 z"
         sodipodi:ry="4.4642859"
         sodipodi:rx="4.4642859"
         sodipodi:cy="919.32648"
         sodipodi:cx="596.25"
         id="path4553"
         style="fill:#784421;stroke:#000000;stroke-width:1.60000002;stroke-miterlimit:4;stroke-opacity:1;stroke-dasharray:none"
         sodipodi:type="arc" />
    </g>
    <path
       sodipodi:type="arc"
       style="fill:#b3b3b3;stroke:#000000;stroke-width:1.60000002;stroke-miterlimit:4;stroke-opacity:1;stroke-dasharray:none"
       id="path4559"
       sodipodi:cx="598.03571"
       sodipodi:cy="935.04077"
       sodipodi:rx="3.3928571"
       sodipodi:ry="3.3928571"
       d="m 601.42856,935.04077 a 3.3928571,3.3928571 0 1 1 -6.78571,0 3.3928571,3.3928571 0 1 1 6.78571,0 z"
       transform="translate(-86.1754,-363.99437)"
       inkscape:export-filename="/home/cobalt/Dropbox/Cobalt Labs/Portfolio/test1.png"
       inkscape:export-xdpi="90"
       inkscape:export-ydpi="90" />
    <path
       sodipodi:type="arc"
       style="fill:#f2f2f2;stroke:#000000;stroke-width:1.60000002;stroke-miterlimit:4;stroke-opacity:1;stroke-dasharray:none"
       id="path4559-7"
       sodipodi:cx="598.03571"
       sodipodi:cy="935.04077"
       sodipodi:rx="3.3928571"
       sodipodi:ry="3.3928571"
       d="m 601.42856,935.04077 a 3.3928571,3.3928571 0 1 1 -6.78571,0 3.3928571,3.3928571 0 1 1 6.78571,0 z"
       transform="translate(-102.94555,-378.06814)"
       inkscape:export-filename="/home/cobalt/Dropbox/Cobalt Labs/Portfolio/test1.png"
       inkscape:export-xdpi="90"
       inkscape:export-ydpi="90" />
    <g
       style="font-size:40px;font-style:normal;font-weight:normal;fill:#000000;fill-opacity:1;stroke:none;font-family:Bitstream Vera Sans"
       id="text3147"
       transform="translate(50.043161,-23.439111)">
      <path
         d="m 337.59267,549.9911 c 0.23998,0.21337 0.35998,0.53337 0.36,0.96 l 0,0.56 c -2e-5,0.1867 0.0533,0.3467 0.16,0.48 0.31998,1.25337 0.51998,1.9867 0.6,2.2 0.08,0.1867 0.14664,0.3467 0.2,0.48 0.08,0.13336 0.23997,0.3867 0.48,0.76 l 0.2,-0.24 c -3e-5,-0.42664 -0.16003,-1.18664 -0.48,-2.28 -0.32002,-1.0933 -0.48002,-1.83997 -0.48,-2.24 0.13331,-0.08 0.23998,-0.11997 0.32,-0.12 l 0.4,-0.04 0.44,2.08 c 0.23997,1.3067 0.54664,2.24003 0.92,2.8 l 0.24,-0.56 -0.56,-2.04 -0.44,-2.36 c 0.39997,-0.0533 0.67997,0.21337 0.84,0.8 l 1.2,5 2.96,10.36 c 1.3333,4.10668 2.98663,10.04001 4.96,13.8 0.08,0.29334 -0.0267,0.64001 -0.32,1.04 l -0.36,-0.52 -0.44,0.44 -0.32,-0.72 -0.48,0.36 c -0.24003,-0.31999 -0.52003,-0.79999 -0.84,-1.44 -0.32003,-0.66666 -0.56003,-1.15999 -0.72,-1.48 -0.16003,-0.31999 -0.28003,-2.53332 -0.36,-2.64 -3e-5,0.56001 0.14663,3.17334 0.44,3.84 l 0.8,1.72 c -0.0534,0.13334 -0.17337,0.24001 -0.36,0.32 l -0.68,0.04 -3.12,-8.6 -0.36,0.6 1.36,5.16 c 0.50664,1.04001 1.03997,2.01334 1.6,2.92 -0.0534,0.13334 -0.0934,0.22667 -0.12,0.28 -3e-5,0.0533 -3e-5,0.0933 0,0.12 -3e-5,0.16001 0.08,0.37334 0.24,0.64 0.18663,0.26667 0.30663,0.49334 0.36,0.68 -3e-5,0.18667 -0.1067,0.34667 -0.32,0.48 -0.7467,-0.8 -1.53336,-2.15999 -2.36,-4.08 -0.8267,-1.91999 -1.45336,-5.17332 -1.88,-5.76 -0.18669,10e-6 -0.29336,0.0933 -0.32,0.28 0.15997,0.32001 0.23997,0.57334 0.24,0.76 0.23997,0.72001 0.59997,3.56001 1.08,4.52 l 1.44,2.72 c -0.1067,0.10667 -0.16003,0.25334 -0.16,0.44 -3e-5,0.16 0.0533,0.34667 0.16,0.56 l 0.4,0.68 c -3e-5,0.13334 -0.25336,0.2 -0.76,0.2 -0.37336,-0.42666 -0.97336,-1.61333 -1.8,-3.56 -0.80003,-1.94666 -1.85336,-5.07999 -3.16,-5.4 l -12.16,-0.24 -3.76,5.64 0.88,-1.72 c 0.29332,-0.58666 0.47999,-1.13333 0.56,-1.64 -0.21334,0.21334 -0.57334,0.77334 -1.08,1.68 -0.48001,0.90667 -0.97334,1.57334 -1.48,2 -1e-5,-0.74666 0.38666,-1.70666 1.16,-2.88 0.77332,-1.17332 1.22666,-1.90666 1.36,-2.2 0.13332,-0.31999 0.45332,-0.47999 0.96,-0.48 0.45332,10e-6 0.67999,-0.27999 0.68,-0.84 l -0.76,-0.04 -0.64,-0.12 c -0.48001,10e-6 -0.72001,0.26668 -0.72,0.8 -0.24001,0.90668 -0.54668,1.61334 -0.92,2.12 l -2.24,3.4 -0.24,-0.36 c -0.16001,0.18667 -0.37334,0.37334 -0.64,0.56 l -1.04,0.4 c 0.26666,-0.26666 0.51999,-0.6 0.76,-1 0.23999,-0.42666 0.46666,-0.90666 0.68,-1.44 -0.29334,0.18667 -0.73334,0.73334 -1.32,1.64 -0.56,0.90667 -1.10667,1.36 -1.64,1.36 l -0.64,-0.12 c 0,-0.90666 0.04,-1.59999 0.12,-2.08 0.08,-0.47999 0.38666,-0.85333 0.92,-1.12 0,-0.37333 0.29333,-1.01333 0.88,-1.92 0.58666,-0.93332 0.87999,-1.59999 0.88,-2 -0.0533,-0.0533 -0.21334,-0.08 -0.48,-0.08 -0.21334,10e-6 -0.4,0.0267 -0.56,0.08 -0.24,10e-6 -0.36,-0.17332 -0.36,-0.52 -0.08,-0.39999 0.2,-0.66665 0.84,-0.8 0.63999,-0.15999 0.95999,-0.30665 0.96,-0.44 -1e-5,-0.15999 -0.18667,-0.41332 -0.56,-0.76 l -0.72,-0.08 c 0,-0.18665 0.17333,-0.30665 0.52,-0.36 0.34666,-0.08 0.54666,-0.15999 0.6,-0.24 -0.0533,-0.0533 -0.10667,-0.17332 -0.16,-0.36 -10e-6,-0.21332 0.0133,-0.35999 0.04,-0.44 -0.10667,-0.15999 -0.20001,-0.23999 -0.28,-0.24 0.34666,-0.45332 0.89333,-0.71998 1.64,-0.8 0.37333,2e-5 0.71999,-0.0133 1.04,-0.04 0.34666,-0.0533 0.59999,-0.0933 0.76,-0.12 l 7.12,-13.64 0.36,0.36 c 0.15998,-0.10664 0.25332,-0.3733 0.28,-0.8 -2e-5,-0.47997 0.08,-0.79997 0.24,-0.96 0.31998,-0.58664 0.59998,-1.03997 0.84,-1.36 0.26665,-0.34663 0.65332,-0.47997 1.16,-0.4 l -0.56,-0.4 c -0.08,-0.08 -0.12002,-0.18663 -0.12,-0.32 0.10665,-0.18663 0.18665,-0.31997 0.24,-0.4 l 0.12,-0.08 0.48,0.6 0.48,-0.76 0.16,0 c -0.50669,1.65337 -1.24002,3.41336 -2.2,5.28 l -2.88,5.76 c -0.90668,1.86669 -1.48001,3.28002 -1.72,4.24 -0.16001,0.85335 -0.33335,1.41335 -0.52,1.68 -0.18668,0.24002 -0.30668,0.46668 -0.36,0.68 l 0.12,0.36 3.44,-7.32 2.52,-5.64 c 0.21332,0.1067 0.39998,0.0267 0.56,-0.24 0.15998,-0.2933 0.27998,-0.5333 0.36,-0.72 0.08,-0.18664 0.18665,-0.39997 0.32,-0.64 -2e-5,-0.71997 0.14665,-1.3333 0.44,-1.84 l 1.2,-1.8 c 0.53331,0.08 0.89331,0.5467 1.08,1.4 0.18664,0.85337 0.41331,1.40003 0.68,1.64 0.08,-0.23997 0.11998,-0.47997 0.12,-0.72 -2e-5,-0.23997 -0.0267,-0.46663 -0.08,-0.68 -0.0534,-0.23997 -0.0934,-0.43997 -0.12,-0.6 l -0.2,-1.08 0.16,-0.64 0.6,0.68 0.2,-0.44 c 0.10664,-0.26663 0.25331,-0.39996 0.44,-0.4 m 0,5.2 c 0.10664,0.80003 0.23998,1.60003 0.4,2.4 0.15998,0.77336 0.37331,1.70669 0.64,2.8 0.26664,1.09336 0.66664,2.28002 1.2,3.56 l 0.12,-0.24 -0.04,-0.64 0,-0.48 c -3e-5,-0.26664 -0.0267,-0.50664 -0.08,-0.72 -0.45336,-0.53331 -0.82669,-1.59998 -1.12,-3.2 -0.26669,-1.62664 -0.64002,-2.78664 -1.12,-3.48 m -3.4,1.04 c -1.04002,1.12003 -1.96002,2.68003 -2.76,4.68 l -2.16,5.56 c 0.23998,-0.53331 0.53332,-1.09331 0.88,-1.68 l 1.2,-2.04 0.24,0.44 0.08,-0.72 c -2e-5,0.18669 -0.0267,0.30669 -0.08,0.36 -0.10668,-0.23998 -0.0667,-0.57331 0.12,-1 l 0.6,-1.08 0.36,0 c -0.08,-0.15998 -0.14669,-0.34664 -0.2,-0.56 -2e-5,-0.18664 0.10665,-0.34664 0.32,-0.48 l 0.28,0.36 c 0.08,-0.63997 0.27998,-1.39997 0.6,-2.28 l 0.52,-1.56 m 0.6,1.76 -2.4,5.32 -2.64,5.6 c 0.29332,0.0534 0.53332,0.0933 0.72,0.12 0.18665,0.0267 0.46665,0.04 0.84,0.04 0.66665,2e-5 1.03998,0.0133 1.12,0.04 l 2.24,0 0.88,0 c 0.29331,2e-5 0.70664,0.0534 1.24,0.16 l -0.08,0.36 c 0.0533,0.08 0.18664,0.14668 0.4,0.2 l 0.48,-0.12 c 0.10664,-0.0267 0.17331,-0.04 0.2,-0.04 0.0533,2e-5 0.13331,-0.0133 0.24,-0.04 l -1.56,-6.04 -1.68,-5.6 m -6.44,1.56 0.64,-1.24 -0.08,-0.08 -0.56,1.32 m 8.6,0.16 0,0.88 1.32,5 c 0.31998,1.33335 0.83998,2.50668 1.56,3.52 l -1.56,-5.56 -1.32,-3.84 m 5.6,1.76 -0.52,-0.72 c 0.90664,3.78669 1.58664,6.34668 2.04,7.68 0.4533,1.30668 1.06664,2.60001 1.84,3.88 l -3.36,-10.84 m -15.4,0.52 0.2,0.08 0.24,-0.96 -0.44,0.88 m 12.84,2.76 c -3e-5,0.58669 0.10664,1.13335 0.32,1.64 l 0.84,1.84 0.36,-0.16 c -0.0267,-0.45332 -0.10669,-0.81332 -0.24,-1.08 -0.08,-0.26665 -0.26669,-0.43998 -0.56,-0.52 0.13331,-0.29331 0.0533,-0.59998 -0.24,-0.92 -0.26669,-0.34665 -0.42669,-0.61331 -0.48,-0.8 m -15.08,1.4 0.08,0.08 0.44,-1.04 -0.12,-0.08 -0.4,1.04 m -0.44,0.84 -0.96,1.68 c 0.15999,-0.10665 0.33332,-0.37332 0.52,-0.8 0.21332,-0.45332 0.35999,-0.74665 0.44,-0.88 m 17.12,1.68 c -0.0534,0.0534 -0.08,0.18668 -0.08,0.4 0.08,0.10668 0.13331,0.17335 0.16,0.2 0.0266,2e-5 0.0533,2e-5 0.08,0 0.13331,-0.08 0.17331,-0.19998 0.12,-0.36 -0.0534,-0.15998 -0.14669,-0.23998 -0.28,-0.24 m -5.64,0.76 0,0.28 0.24,0 0.12,-0.2 -0.36,-0.08 m -5.72,1.16 -0.48,-0.44 c 0.0266,0.24001 -0.08,0.37335 -0.32,0.4 -0.29335,10e-6 -0.44001,0.0933 -0.44,0.28 l 2.4,0.4 c 1.33331,0.21335 2.53331,0.32001 3.6,0.32 0.18665,-0.18665 0.37331,-0.27999 0.56,-0.28 0.13331,10e-6 0.27998,0.0933 0.44,0.28 0.15998,-0.08 0.41331,-0.08 0.76,0 l 0.8,0.12 c 0.15998,10e-6 0.31998,-0.04 0.48,-0.12 -2e-5,-0.39999 -0.04,-0.66665 -0.12,-0.8 l -7.68,-0.16 m -4.72,0.04 -0.2,0 0.12,0.36 0.08,-0.36 m 20.68,2.04 c -3e-5,0.58668 0.2533,1.26668 0.76,2.04 0.5333,0.77334 0.82663,3.22668 0.88,3.36 l -1.64,-5.4 m -14.36,1.56 -0.32,-0.08 -0.16,0.24 0.48,-0.16 m 3.16,0.16 0.64,0.12 0.68,0.12 c 0.21331,1e-5 0.42664,-0.08 0.64,-0.24 -0.32002,-0.08 -0.64002,-0.11999 -0.96,-0.12 l -1,0.12 m 4.36,0 -0.72,-0.08 c -0.21336,10e-6 -0.38669,0.0533 -0.52,0.16 l 1.24,0.28 0,-0.36 m -18.56,0.44 c -0.42667,0.0267 -0.66667,0.26668 -0.72,0.72 -0.0533,0.42668 -0.29334,0.65334 -0.72,0.68 l -1.84,4.16 c 0.42666,-0.24 0.97333,-1.01333 1.64,-2.32 0.66666,-1.33332 1.37333,-1.99999 2.12,-2 0.34666,10e-6 0.66666,0.0533 0.96,0.16 -0.0267,-0.13332 -0.25334,-0.31999 -0.68,-0.56 -0.42667,-0.26666 -0.68001,-0.54666 -0.76,-0.84 m 0.8,2.6 -0.24,0 -0.44,0.56 0.68,-0.56 m 24.8,2.96 0.4,0.52 0,-0.28 c -0.0534,-0.13333 -0.0934,-0.21333 -0.12,-0.24 -0.13337,10e-6 -0.2267,10e-6 -0.28,0 m -12.12,-23.2 -0.08,0.32 0.08,-0.32"
         style="fill:#d40000"
         id="path3172"
         sodipodi:nodetypes="ccccssccscccccccccccccccccsscccccccccsssscscccccscccccccccccssscccccccccsccccscccscccsccssccccscccccscccccccccccsccccsscccscsscccccccssccccccccccccccccccscccccccsscccccccscccccccccccccccccccccccccccccccccccccscccsssccccccccscccsccccccccccccccccccccccccccccccscccsccccccccccscccc" />
      <path
         d="m 367.22329,560.3511 0.2,1.92 c -1e-5,1.25335 0.10665,2.42669 0.32,3.52 0.23999,1.06668 0.39999,1.80002 0.48,2.2 0.10665,0.37335 0.31999,1.05335 0.64,2.04 l -0.2,0.68 c -1e-5,0.29335 -0.0267,0.48001 -0.08,0.56 -0.37335,-0.13332 -0.61335,-0.0133 -0.72,0.36 -0.08,0.37335 -0.29335,0.50668 -0.64,0.4 l -1.12,-2.04 -0.48,-1.2 c -0.0533,0.16002 -0.10668,0.40002 -0.16,0.72 -10e-6,0.34668 0.04,0.61335 0.12,0.8 0.08,0.16001 0.49332,0.84001 1.24,2.04 0.0267,0.16001 -0.0134,0.29335 -0.12,0.4 l -0.48,0.12 c -0.61334,-0.61332 -1.08001,-1.51999 -1.4,-2.72 l -0.72,-3.48 c -0.24001,0.16002 -0.36001,0.41335 -0.36,0.76 l 0.24,1.56 c 0.0533,0.45335 0.10666,0.80002 0.16,1.04 0.0533,0.24001 0.18666,0.61335 0.4,1.12 0.23999,0.77335 0.59999,1.66668 1.08,2.68 -0.26668,10e-6 -0.41334,0.0933 -0.44,0.28 l 0.04,0.52 c -1e-5,0.16001 -0.12001,0.30668 -0.36,0.44 -0.56001,-0.55999 -1.02668,-1.39999 -1.4,-2.52 l -0.8,-3.16 -0.04,-0.8 c -10e-6,-0.23998 -0.0933,-0.58665 -0.28,-1.04 -0.10667,0.0267 -0.29334,0.20002 -0.56,0.52 l -0.44,0.56 0.56,-0.08 c -1.17334,1.62668 -2.09334,3.38668 -2.76,5.28 -0.66667,1.89334 -1.24,4.10667 -1.72,6.64 -0.10667,0.13334 -0.49334,0.24 -1.16,0.32 l 0.96,-4.32 -1.4,4.04 -0.64,0.28 c 0.69333,-1.75999 1.04,-3.58666 1.04,-5.48 -0.37333,0.58668 -0.72,1.60001 -1.04,3.04 -0.29333,1.41334 -0.52,2.28 -0.68,2.6 l -0.88,0.4 c -0.4,0.16 -0.69333,0.41334 -0.88,0.76 -0.29333,-0.10666 -0.52,-0.34666 -0.68,-0.72 l -0.28,-0.8 c 0.26667,-1.14666 0.53334,-2.46666 0.8,-3.96 0.26667,-1.51999 0.54667,-3.42665 0.84,-5.72 0.29333,-2.29332 0.44,-4.89331 0.44,-7.8 l 0.52,-0.12 c 0.29333,-0.0533 0.49333,-0.17331 0.6,-0.36 0.56,0.21336 0.92,0.66669 1.08,1.36 l 0.36,3.48 c 0,0.58668 -0.16,1.54668 -0.48,2.88 -0.32,1.30668 -0.48,2.18668 -0.48,2.64 0,0.72001 -0.18667,1.73334 -0.56,3.04 l -0.6,2.36 0.4,-0.48 c 0.16,-0.66666 0.6,-2.21332 1.32,-4.64 0.72,-2.45332 1.08,-4.46665 1.08,-6.04 0,-0.42665 -0.0133,-0.82665 -0.04,-1.2 -0.0267,-0.39998 -0.0933,-0.83998 -0.2,-1.32 -0.08,-0.47998 -0.34667,-1.17331 -0.8,-2.08 l 0.16,-0.28 c 0.24,0.13336 0.46666,0.45336 0.68,0.96 l 0.52,1.52 c 0.13333,-0.18665 0.2,-0.42665 0.2,-0.72 0,-0.31998 -0.0667,-0.66664 -0.2,-1.04 l -0.28,-0.84 0.96,0 -0.04,-0.84 c 0.64,0.13336 0.96,0.61336 0.96,1.44 0,0.80002 0.13333,1.32002 0.4,1.56 0.0533,-0.10665 0.10666,-0.30665 0.16,-0.6 l -0.08,-1.12 c 0,-0.37331 0.14666,-0.63998 0.44,-0.8 0.10666,0.32002 0.19999,0.84002 0.28,1.56 l 0.08,1.8 -0.04,1.24 0,1.16 c 0.55999,-0.39998 1.06666,-0.85331 1.52,-1.36 0.45333,-0.53331 0.74666,-1.07998 0.88,-1.64 l 0.92,-0.72 c 0.55999,-0.47998 0.91999,-0.97331 1.08,-1.48 0.21332,2e-5 0.38666,-0.0666 0.52,-0.2 0.15999,-0.13331 0.26666,-0.33331 0.32,-0.6 l 0.04,-0.16 0.16,-0.12 0.36,0.4 c 0.15999,-0.13331 0.26665,-0.41331 0.32,-0.84 l 0,-0.44 c -10e-6,-0.15998 0.10665,-0.23998 0.32,-0.24 l 0.52,0.12 m -12.64,2.88 c 0.34667,1.30669 0.52,2.54669 0.52,3.72 0.08,-0.45331 0.12,-0.89331 0.12,-1.32 0,-0.53331 -0.04,-0.97331 -0.12,-1.32 -0.08,-0.37331 -0.25333,-0.73331 -0.52,-1.08 m 10.44,0.4 c -0.08,0.21335 -0.12001,0.46669 -0.12,0.76 -1e-5,0.26669 0.0667,0.48002 0.2,0.64 l 0.08,-0.08 0.12,-0.8 c -1e-5,-0.23998 -0.0933,-0.41331 -0.28,-0.52 m -6.72,6.48 0.16,0 c 0.4,-1.17332 0.6,-2.42665 0.6,-3.76 l 0,-0.64 -0.08,-0.68 -0.68,5.08 m 3.92,-3.68 -1.76,1.76 c -0.10667,0.32002 -0.21334,0.58668 -0.32,0.8 l 0.12,0.32 1.24,-1.56 c 0.31999,-0.45332 0.55999,-0.89332 0.72,-1.32 m 1.56,4.28 c -1e-5,0.53335 0.0933,1.06668 0.28,1.6 0.21332,0.53335 0.47999,0.90668 0.8,1.12 l -0.48,-1.32 c -0.16001,-0.61332 -0.36001,-1.07999 -0.6,-1.4 m -5.72,1.68 -0.64,2.2 c 0.24,-0.15999 0.4,-0.47999 0.48,-0.96 l 0.16,-1.24 m -4.92,6 -0.28,0.56 c -0.08,0.16001 -0.0667,0.30667 0.04,0.44 l 0.24,-1 m 1.08,0.24 c -0.0267,0.10667 -0.0533,0.22667 -0.08,0.36 -0.0267,0.13334 -0.10667,0.40001 -0.24,0.8 -0.13333,0.37334 -0.2,0.70667 -0.2,1 0.0267,-0.0267 0.08,-0.13333 0.16,-0.32 0.08,-0.21333 0.16,-0.46666 0.24,-0.76 0.08,-0.29333 0.12,-0.65333 0.12,-1.08 m 10.96,-16 0.04,-0.28 -0.04,0.28"
         style="fill:#44aa00"
         id="path3174" />
      <path
         d="m 377.37517,549.2711 c 0.08,0.13337 0.14666,0.40004 0.2,0.8 l 0,0.96 c -0.18668,0.16003 -0.34668,0.52003 -0.48,1.08 l 0.12,0.08 0.28,0 0.32,-0.76 c -1e-5,0.77337 -0.21334,1.8667 -0.64,3.28 -0.40001,1.3867 -0.60001,2.44003 -0.6,3.16 -1e-5,0.53336 0.0533,0.97336 0.16,1.32 0.0267,-0.08 0.0667,-0.21331 0.12,-0.4 0.08,-0.21331 0.21332,-0.51997 0.4,-0.92 0.18666,-0.42664 0.31999,-0.85331 0.4,-1.28 l 0.92,-4.28 c -1e-5,0.77337 -0.04,1.5067 -0.12,2.2 l -0.8,4.68 c 0.15999,0.08 0.27999,0.12003 0.36,0.12 l 0.4,0 c 0.29332,-0.66664 0.55999,-1.79997 0.8,-3.4 l 0.68,-4.92 c 0.08,-0.08 0.23999,-0.15997 0.48,-0.24 l 0.08,0.6 c -1e-5,0.3467 0.11999,0.5867 0.36,0.72 0.15999,-0.15997 0.23999,-0.46663 0.24,-0.92 l 0,-0.56 c -10e-6,-0.18663 0.10665,-0.34663 0.32,-0.48 l 0.24,0.28 -0.24,4.84 0.24,0 c 0.10665,-0.2933 0.23999,-1.18664 0.4,-2.68 0.15999,-1.51997 0.46665,-2.6133 0.92,-3.28 l 0.12,0.16 -1.16,9.08 c 0.15999,0.16003 0.39999,0.29336 0.72,0.4 0.34665,0.10669 0.69332,0.16003 1.04,0.16 l 1.04,-0.04 c 0.47998,3e-5 0.85332,0.0667 1.12,0.2 0.31998,0.08 0.57332,0.33336 0.76,0.76 l -0.76,0.84 c -0.13335,0.18669 -0.22668,0.36002 -0.28,0.52 -2e-5,0.21336 0.18665,0.41336 0.56,0.6 l -0.08,0.44 -2.96,-0.52 c -0.29335,2e-5 -0.53335,0.0267 -0.72,0.08 -0.18668,0.0534 -0.37335,0.20002 -0.56,0.44 0.21332,0.21336 0.86665,0.40002 1.96,0.56 0.95998,2e-5 1.61332,0.20002 1.96,0.6 -0.37335,2e-5 -0.73335,-0.0267 -1.08,-0.08 l -1,-0.12 -0.6,0.04 c 0.13332,0.16002 0.59998,0.32002 1.4,0.48 0.79998,0.08 1.19998,0.30669 1.2,0.68 -2e-5,0.21335 -0.0933,0.49335 -0.28,0.84 -0.29335,2e-5 -0.88002,-0.08 -1.76,-0.24 l -1.68,-0.28 c -0.32001,2e-5 -0.64001,0.04 -0.96,0.12 l -1.24,6.36 -1.2,9.12 c -0.16001,0.08 -0.38668,0.08 -0.68,0 -0.21334,-0.10666 -0.36001,-0.29333 -0.44,-0.56 0.21332,-0.93333 0.38666,-1.98666 0.52,-3.16 l 0.16,-3.72 c -0.37334,0.64001 -0.68001,2.01334 -0.92,4.12 -1e-5,0.98667 -0.12001,1.81334 -0.36,2.48 -0.21334,0.64 -0.53334,1.2 -0.96,1.68 l -0.68,-0.76 0.96,-6.8 1.48,-8.6 c -0.08,-0.23998 -0.28001,-0.29331 -0.6,-0.16 -0.24001,0.64002 -0.45334,1.65335 -0.64,3.04 -0.16001,1.36002 -0.30667,2.44001 -0.44,3.24 -0.10667,0.77335 -0.18667,1.30668 -0.24,1.6 -0.0267,0.26668 -0.0533,0.57335 -0.08,0.92 -0.13334,0.53334 -0.24001,1.05334 -0.32,1.56 -0.08,0.50668 -0.20001,0.96001 -0.36,1.36 -0.16001,0.37334 -0.29334,0.82667 -0.4,1.36 l -0.08,1 0,0.92 -0.04,0.72 c -1e-5,0.24 -0.0667,0.44 -0.2,0.6 -0.37334,-0.26666 -0.56001,-0.8 -0.56,-1.6 l 2.32,-14.32 -0.12,-0.24 -0.52,0.48 -2.72,16.64 -0.36,-0.04 -0.36,-0.52 c -0.16,0.10667 -0.28,0.24 -0.36,0.4 -0.0533,0.16 -0.16,0.17334 -0.32,0.04 -0.08,-0.18666 -0.04,-0.34666 0.12,-0.48 l 0.56,-0.36 -0.68,-0.92 2,-14.88 c -0.21334,-0.08 -0.42667,-0.11998 -0.64,-0.12 -0.24,2e-5 -0.58667,0.0533 -1.04,0.16 l -0.92,0.16 c -0.34667,2e-5 -0.62667,-0.0666 -0.84,-0.2 0,-0.39998 0.08,-0.69331 0.24,-0.88 0.16,-0.18665 0.65333,-0.50665 1.48,-0.96 l 0.68,0 c 0.37333,2e-5 0.64,-0.0267 0.8,-0.08 0.16,-0.08 0.31999,-0.25331 0.48,-0.52 l 0,-0.32 -2.16,-0.24 c -0.0267,-0.15998 0.10666,-0.33331 0.4,-0.52 0.32,-0.21331 0.48,-0.38664 0.48,-0.52 l -0.12,-0.32 c 0.24,2e-5 0.53333,-0.0933 0.88,-0.28 0.37333,-0.21331 0.61333,-0.33331 0.72,-0.36 l -1.32,-0.24 c 0.64,-0.15997 1.15999,-0.42664 1.56,-0.8 0.42666,-0.37331 0.63999,-0.89331 0.64,-1.56 -10e-6,-0.77331 0.0533,-1.51997 0.16,-2.24 0.13333,-0.71997 0.25333,-1.35997 0.36,-1.92 0.10666,-0.58663 0.23999,-1.14663 0.4,-1.68 l 0.24,0 c -10e-6,0.69337 -0.16001,1.96003 -0.48,3.8 l -0.44,3.6 c 0.45333,-0.45331 0.81333,-1.63997 1.08,-3.56 0.29333,-1.91997 0.46666,-2.91997 0.52,-3 l 0.24,-1.56 c -1e-5,-0.90663 0.26666,-1.59996 0.8,-2.08 m 1.68,0.16 c 0.23999,0.08 0.35999,0.24004 0.36,0.48 -10e-6,0.1867 -0.10668,0.49337 -0.32,0.92 l -0.28,0.68 c -0.08,-0.2133 -0.12001,-0.4133 -0.12,-0.6 -1e-5,-0.26663 0.0267,-0.50663 0.08,-0.72 0.0533,-0.2133 0.14666,-0.46663 0.28,-0.76 m 2,3.32 c -0.24001,1.81336 -0.41335,2.8667 -0.52,3.16 l -0.48,1.28 c 0.08,0.0534 0.14665,0.18669 0.2,0.4 l -0.08,0.52 c -0.0267,0.26669 -0.0267,0.49336 0,0.68 l 0.56,-1.72 c 0.08,0.0534 0.14665,0.21336 0.2,0.48 l -0.12,0.88 0.12,0.36 0.44,-2.88 -0.56,0.92 0.12,-1.88 0.16,-1.48 -0.04,-0.72 m -7.64,8.56 -0.8,0.2 c -0.16,2e-5 -0.24,0.08 -0.24,0.24 l 0.76,0.04 c 0.21333,2e-5 0.37333,-0.0666 0.48,-0.2 l -0.04,-0.16 -0.16,-0.12 m 4.52,1.2 -0.56,-0.16 -0.12,0.56 0.68,-0.4 m -6.32,2 0.72,0 c 0.37333,2e-5 0.6,-0.13331 0.68,-0.4 -0.24,2e-5 -0.52,0.0667 -0.84,0.2 -0.32,0.10669 -0.50667,0.17335 -0.56,0.2 m 8.12,0.48 c -0.24001,0.66669 -0.44001,1.45335 -0.6,2.36 l -0.16,2.68 c 0.08,-0.31998 0.15999,-0.62665 0.24,-0.92 0.08,-0.29332 0.19999,-0.70665 0.36,-1.24 0.18666,-0.55998 0.27999,-1.13331 0.28,-1.72 -10e-6,-0.37331 -0.04,-0.75998 -0.12,-1.16 m 3.96,-5.68 -0.4,-0.12 0.4,0.12"
         style="fill:#ffcc00"
         id="path3176" />
      <path
         d="m 396.64704,547.9511 3.24,4.84 c -0.08,0.24003 -0.20001,0.44003 -0.36,0.6 -0.74667,-0.42663 -1.32001,-0.90663 -1.72,-1.44 l -2.2,-3.36 1.04,-0.64 m -1.68,0.28 3.96,5.68 -0.12,0.16 -0.16,0.08 -0.44,-0.12 -0.36,-0.2 0.04,0.68 c -1e-5,0.32003 -0.13334,0.49336 -0.4,0.52 l -0.32,-0.04 -0.88,-0.4 c -0.16,-0.50664 -0.64,-1.2933 -1.44,-2.36 -0.8,-1.0933 -1.28,-2.0533 -1.44,-2.88 0.10667,0.08 0.26666,0.1467 0.48,0.2 0.16,4e-5 0.34666,-0.18663 0.56,-0.56 0.16,-0.39996 0.33333,-0.6533 0.52,-0.76 m -1.56,3.52 0.12,-0.88 c 0.24,0.24003 0.53333,0.81337 0.88,1.72 0.34666,0.9067 0.66666,1.45336 0.96,1.64 0.29333,0.16003 0.46666,0.3067 0.52,0.44 0.0533,0.1067 0.17333,0.25336 0.36,0.44 0.21333,0.16003 0.34666,0.3467 0.4,0.56 l -0.52,0.08 c -0.45334,3e-5 -0.82667,-0.15997 -1.12,-0.48 -0.29334,-0.34664 -0.6,-0.78664 -0.92,-1.32 -0.29334,-0.55997 -0.53334,-0.98663 -0.72,-1.28 -0.18667,-0.31997 -0.4,-0.70663 -0.64,-1.16 -0.24,-0.4533 -0.36,-0.9333 -0.36,-1.44 l 1.04,1.68 m -1.84,-1.16 3.4,5.88 c -0.48,-0.10664 -0.93334,-0.3733 -1.36,-0.8 -0.42667,-0.42664 -0.82667,-1.02664 -1.2,-1.8 -0.37333,-0.7733 -0.6,-1.23997 -0.68,-1.4 -0.0533,-0.15997 -0.16,-0.34663 -0.32,-0.56 -0.13333,-0.2133 -0.22667,-0.4533 -0.28,-0.72 0,-0.23997 0.14667,-0.43997 0.44,-0.6 m 6.64,8.68 c 0.23999,-0.23997 0.47999,-0.38664 0.72,-0.44 0.13333,3e-5 0.23999,0.10669 0.32,0.32 0.08,0.21336 0.11999,0.49336 0.12,0.84 -10e-6,0.34669 -0.04,0.70669 -0.12,1.08 -0.08,0.34669 -0.14667,0.62669 -0.2,0.84 l -1.08,6.24 -1.24,7.28 c -0.13334,0.88001 -0.28,1.66667 -0.44,2.36 -0.13334,0.69334 -0.36,1.54667 -0.68,2.56 l -0.4,0.24 -0.16,-0.24 0.48,-3.6 0.84,-4.2 -0.2,-0.16 c -0.37334,0.88001 -0.74667,2.06668 -1.12,3.56 l -1,4.12 -0.16,0.08 c -0.0533,-0.23999 -0.0267,-0.58666 0.08,-1.04 l 0.16,-0.92 c 0,-0.31999 -0.08,-0.55999 -0.24,-0.72 l -0.64,1.68 c -0.24,0.90667 -0.53333,1.50667 -0.88,1.8 l 1.16,-5.92 -0.16,-0.28 -0.56,0.52 -0.44,2.36 c -0.24,1.46667 -0.50667,2.49334 -0.8,3.08 l -0.24,-0.28 1.6,-7.28 1.4,-6.96 0.88,-6.92 c 0.24,0.13336 0.36,0.45336 0.36,0.96 0,0.50669 0.0667,0.82669 0.2,0.96 0.21333,-0.08 0.34666,-0.23998 0.4,-0.48 l -0.12,-0.84 c 0.0533,-0.21331 0.0933,-0.34664 0.12,-0.4 l 0.36,0.24 c 0.18666,0.13336 0.37333,0.14669 0.56,0.04 l -2.04,13.88 c 0.64,-1.83999 1.16,-4.09332 1.56,-6.76 l 1.08,-7.68 c 0.13333,0.10669 0.19999,0.21336 0.2,0.32 l -0.04,0.64 0.28,0 c 0.0267,-0.18664 0.04,-0.33331 0.04,-0.44 -10e-6,-0.21331 0.0133,-0.35997 0.04,-0.44 m -5.92,0.76 c 0.08,0.21336 0.12,0.41336 0.12,0.6 0,0.26669 -0.0267,0.50669 -0.08,0.72 l -0.08,0.72 c 0,0.26669 0.0667,0.50669 0.2,0.72 0.10667,-0.10664 0.18667,-0.22664 0.24,-0.36 0.08,-0.15998 0.12,-0.38664 0.12,-0.68 l 0.16,-1.32 0.44,0.24 0.48,-0.64 c 0.18666,0.66669 0.28,1.36002 0.28,2.08 0,0.29336 -0.0133,0.62669 -0.04,1 -0.0267,0.34669 -0.08,0.70669 -0.16,1.08 -0.0533,0.37335 -0.14667,0.80002 -0.28,1.28 -0.10667,0.48002 -0.28,1.04002 -0.52,1.68 -0.21333,1.65335 -0.41333,3.06668 -0.6,4.24 -0.18667,1.14668 -0.41333,2.26668 -0.68,3.36 -0.4,2.05334 -1.02667,4.00001 -1.88,5.84 -0.08,-0.21333 -0.22666,-0.24 -0.44,-0.08 l -0.44,0.44 c -0.08,-0.0533 -0.14666,-0.17333 -0.2,-0.36 l 0.12,-0.64 c 0,-0.15999 -0.0933,-0.29333 -0.28,-0.4 l 2.2,-11.36 c -0.08,-0.18665 -0.14667,-0.51998 -0.2,-1 0,-0.47998 0.04,-0.86665 0.12,-1.16 0.10667,-0.31998 0.18667,-0.57331 0.24,-0.76 0.08,-0.18665 0.2,-0.41331 0.36,-0.68 0,-0.50665 0,-1.02665 0,-1.56 0.08,-0.39998 0.16,-0.82664 0.24,-1.28 0.08,-0.45331 0.26667,-1.02664 0.56,-1.72 m 2.68,13.76 -0.44,1.24 c -0.08,0.29334 -0.0933,0.57334 -0.04,0.84 l 0.48,-2.08"
         style="fill:#0044aa"
         id="path3178" />
      <path
         d="m 414.71829,560.5111 0.96,-0.08 c 0.63999,2e-5 1.26665,0.08 1.88,0.24 0.63999,0.16002 1.29332,0.40002 1.96,0.72 0.21332,-0.0533 0.43998,-0.04 0.68,0.04 0.26665,0.08 0.57332,0.30669 0.92,0.68 l 0,0.32 c -0.26668,2e-5 -0.54668,-0.0533 -0.84,-0.16 -0.24002,-0.15998 -0.40002,-0.33331 -0.48,-0.52 l 0.12,-0.12 c -0.0534,-0.0533 -0.17335,-0.10664 -0.36,-0.16 -0.24002,0.08 -0.42668,0.12002 -0.56,0.12 -0.18668,-0.13331 -0.30668,-0.25331 -0.36,-0.36 -0.37335,2e-5 -1.12001,-0.08 -2.24,-0.24 l -2.24,-0.28 c -0.50668,2e-5 -0.88001,0.0267 -1.12,0.08 -0.32001,2e-5 -0.70668,0.14669 -1.16,0.44 l 3.04,0.12 c 0.71999,2e-5 1.61332,0.13336 2.68,0.4 l 0.28,0.44 c 0.10665,-0.18664 0.37332,-0.29331 0.8,-0.32 l 0.56,0.04 c 0.26665,0.13336 0.54665,0.40002 0.84,0.8 0.31998,0.37336 0.61332,0.68002 0.88,0.92 -0.16002,0.77335 -0.40002,1.16002 -0.72,1.16 -0.21335,2e-5 -0.62668,-0.27998 -1.24,-0.84 -0.58668,-0.55998 -1.05335,-0.82664 -1.4,-0.8 l -1.48,-0.36 c -0.32001,-0.08 -0.53335,-0.25331 -0.64,-0.52 -0.18668,0.0534 -0.48001,0.10669 -0.88,0.16 -0.40001,2e-5 -0.88001,-0.0533 -1.44,-0.16 l -1.08,-0.2 c -0.42667,2e-5 -0.82667,0.12002 -1.2,0.36 0.10666,0.29336 0.26666,0.46669 0.48,0.52 0.21333,-0.0533 0.37333,-0.10664 0.48,-0.16 l 0.44,-0.2 c 0.0533,0.0267 0.10666,0.0534 0.16,0.08 0.08,0.0267 0.14666,0.0934 0.2,0.2 l 0.84,-0.08 c 0.23999,2e-5 0.43999,2e-5 0.6,0 0.18666,2e-5 0.43999,0.04 0.76,0.12 0.31999,0.0534 0.61332,0.12002 0.88,0.2 0.26665,0.0534 0.55999,0.14669 0.88,0.28 l 0.32,0.72 c 0.13332,-0.13331 0.29332,-0.22665 0.48,-0.28 0.13332,2e-5 0.38665,0.12002 0.76,0.36 0.29332,0.24002 0.55999,0.37335 0.8,0.4 0.15998,0.16002 0.27998,0.33335 0.36,0.52 l 0.24,0.88 c -2.29335,-1.01331 -3.92001,-1.65331 -4.88,-1.92 -0.93334,-0.29331 -1.82668,-0.43998 -2.68,-0.44 l -1.36,0.12 4.2,0.88 c -0.24001,2e-5 -0.60001,-0.08 -1.08,-0.24 -0.45334,-0.15998 -0.80001,-0.23998 -1.04,-0.24 -0.18668,2e-5 -0.44001,0.08 -0.76,0.24 l 2.6,0.64 c 1.65332,0.40002 2.83999,1.01335 3.56,1.84 -0.42668,-0.10665 -1.17335,-0.34665 -2.24,-0.72 -1.06668,-0.39998 -1.90668,-0.66665 -2.52,-0.8 -0.58668,-0.13331 -1.14667,-0.19998 -1.68,-0.2 l -0.68,0 c -0.21334,2e-5 -0.54667,0.0533 -1,0.16 -0.45334,0.08 -0.68001,0.41335 -0.68,1 -10e-6,0.34669 0.11999,0.74668 0.36,1.2 l 1.2,1 0,-0.6 c 0.42666,0.48002 1.78666,1.36002 4.08,2.64 2.29332,1.28001 3.51999,2.76001 3.68,4.44 0.15999,-0.29332 0.23999,-0.57332 0.24,-0.84 -10e-6,-0.29332 -0.08,-0.62666 -0.24,-1 l -0.44,-1.04 c -0.16001,-0.15999 -1.29335,-0.87999 -3.4,-2.16 -2.10668,-1.27998 -3.40001,-2.38665 -3.88,-3.32 0.50666,0.69335 2.06666,1.73335 4.68,3.12 2.61332,1.38668 3.91998,3.08001 3.92,5.08 -2e-5,0.82668 -0.13335,1.58668 -0.4,2.28 -0.24001,0.66667 -0.65335,1.22667 -1.24,1.68 l 0.48,-1.64 c 0.08,-0.26666 0.14665,-0.63999 0.2,-1.12 -10e-6,-0.53332 -0.14668,-0.99999 -0.44,-1.4 l -0.16,1.56 c -10e-6,0.77334 -0.13335,1.40001 -0.4,1.88 0.08,0.64001 -0.21335,1.28001 -0.88,1.92 l -1.08,0.84 c -1.68001,0.8 -3.49334,1.2 -5.44,1.2 -2.93334,0 -5.38667,-0.77333 -7.36,-2.32 0.16,10e-6 0.32,-0.11999 0.48,-0.36 l 0,-0.4 c -0.13333,0.0533 -0.32,0.10667 -0.56,0.16 -0.29333,1e-5 -0.56,-0.13333 -0.8,-0.4 l -0.72,-1.36 c -0.08,-0.34666 -0.0667,-0.58666 0.04,-0.72 0.13334,-0.13332 0.36,-0.27999 0.68,-0.44 l 1.32,2.24 c 0.37333,0.61334 0.78667,1.05334 1.24,1.32 l 1.32,0.64 c 0.4,0.16 0.61333,0.45334 0.64,0.88 l 1.2,0.04 c 0.0533,0.18667 0.10666,0.33334 0.16,0.44 0.08,-0.08 0.28,-0.14666 0.6,-0.2 l 0.92,0.08 c 0.23999,0 0.46666,-0.08 0.68,-0.24 -0.13334,-0.0267 -0.37334,-0.0533 -0.72,-0.08 -0.34667,-0.0533 -0.70667,-0.12 -1.08,-0.2 -0.37334,-0.08 -0.72,-0.32 -1.04,-0.72 -0.4,0 -0.76,-0.08 -1.08,-0.24 l -2.16,-1.56 -0.72,-1.04 c -0.18667,-0.31999 -0.28,-0.61333 -0.28,-0.88 0,-0.15999 0.0533,-0.33332 0.16,-0.52 0.45333,1.12001 1.13333,2.12001 2.04,3 0.88,0.77334 1.88,1.24 3,1.4 l 1.44,0.24 1.24,0.08 c 0.58666,0 1.09333,-0.10666 1.52,-0.32 -0.61334,-0.10666 -1.29334,-0.24 -2.04,-0.4 -0.72001,-0.15999 -1.58667,-0.35999 -2.6,-0.6 -1.01334,-0.26666 -1.96,-0.87999 -2.84,-1.84 l -1.4,-2.12 c 0.13333,0.0533 0.32,0.26668 0.56,0.64 0.24,0.34668 0.46667,0.58667 0.68,0.72 -0.16,-0.31999 -0.24,-0.69332 -0.24,-1.12 0,-0.55999 0.16,-1.06666 0.48,-1.52 0.4,0.96001 1.01333,1.81334 1.84,2.56 0.82666,0.72001 1.82666,1.36001 3,1.92 0.21333,0.21334 0.50666,0.40001 0.88,0.56 0.31999,0.08 0.75999,0.12001 1.32,0.12 l 0.56,0 c 0.18666,10e-6 0.46666,-0.0267 0.84,-0.08 l 0.92,-0.12 0.6,-1.2 -0.04,0.88 c 0.21332,-0.0267 0.37332,-0.0667 0.48,-0.12 0.10666,-0.08 0.15999,-0.14666 0.16,-0.2 -1e-5,-1.25333 -0.40001,-2.30666 -1.2,-3.16 -1e-5,0.16001 0.08,0.50668 0.24,1.04 l 0.32,0.96 c -0.48001,-1.33332 -1.85334,-2.42666 -4.12,-3.28 -2.24,-0.87999 -3.65334,-1.67999 -4.24,-2.4 -0.56,-0.77332 -0.96,-1.45332 -1.2,-2.04 -0.24,-0.58665 -0.36,-1.18665 -0.36,-1.8 0,-0.39998 0.08,-0.83998 0.24,-1.32 0.24,-0.93331 0.70666,-1.83998 1.4,-2.72 0.72,-0.90664 1.57333,-1.50664 2.56,-1.8 l 0.04,0.56 1.2,-0.6 c 0.29333,-0.18664 0.53333,-0.41331 0.72,-0.68 -0.0533,-0.0533 -0.10667,-0.08 -0.16,-0.08 l -0.28,0 c 0.53333,-0.31998 1.03999,-0.57331 1.52,-0.76 0.47999,-0.21331 0.95999,-0.31998 1.44,-0.32 0.39999,2e-5 0.77332,0.0934 1.12,0.28 m 1.88,4.76 0,-0.16 0.4,0.16 -0.4,0 m -10.68,9.8 c 0.96,1.12001 2.02666,2.01334 3.2,2.68 1.17333,0.64001 2.43999,0.96001 3.8,0.96 l 1.32,-0.12 c -0.21334,0.21334 -0.56001,0.32001 -1.04,0.32 l -0.64,-0.04 c -0.32001,1e-5 -0.52001,-0.0133 -0.6,-0.04 -0.50667,10e-6 -1.02667,-0.08 -1.56,-0.24 -0.53334,-0.18666 -1.17334,-0.49333 -1.92,-0.92 -0.74667,-0.42666 -1.6,-1.14666 -2.56,-2.16 l 0,-0.44 m 2.32,-10.36 c 0.29333,-0.0267 0.62666,-0.26665 1,-0.72 0.39999,-0.47998 0.66666,-0.89331 0.8,-1.24 -0.56001,0.21336 -1.00001,0.46669 -1.32,0.76 -0.32,0.26669 -0.48,0.66669 -0.48,1.2 m -0.4,1.04 -0.16,0.44 c 0,0.32002 0,0.60002 0,0.84 0,0.24002 0.04,0.54668 0.12,0.92 0.10666,0.34668 0.36,0.70668 0.76,1.08 l -0.32,-1.52 c -0.08,-0.39998 -0.12,-0.81331 -0.12,-1.24 l 0,-0.36 -0.28,-0.16 m -0.68,0.4 c -0.21334,0.21335 -0.37334,0.46669 -0.48,0.76 -0.08,0.29335 -0.12,0.64002 -0.12,1.04 l 0.04,0.84 c 0,0.32002 0.0267,0.57335 0.08,0.76 0,0.72001 0.18666,1.21335 0.56,1.48 0.37333,0.24001 0.84,0.50668 1.4,0.8 0.58666,0.26668 0.95999,0.44001 1.12,0.52 -0.85334,-0.31999 -1.54667,-0.86665 -2.08,-1.64 -0.50667,-0.79998 -0.76,-1.65332 -0.76,-2.56 0.4,1.49335 1.90666,2.94668 4.52,4.36 2.61332,1.38668 4.03999,2.90668 4.28,4.56 0.08,-0.37332 0.11999,-0.71999 0.12,-1.04 -10e-6,-1.33332 -1.09334,-2.53332 -3.28,-3.6 -2.16001,-1.09332 -3.45334,-1.86665 -3.88,-2.32 -0.42667,-0.45332 -0.76,-1.11998 -1,-2 l -0.52,-1.96 m -0.88,-0.64 c 0.26666,-0.23998 0.48,-0.45331 0.64,-0.64 0.18666,-0.21331 0.36,-0.39998 0.52,-0.56 l 1.28,-1.44 c -0.72,0.53336 -1.28,0.98669 -1.68,1.36 -0.4,0.37335 -0.65334,0.80002 -0.76,1.28"
         style="fill:#803300"
         id="path3180" />
      <path
         d="m 429.87517,549.2711 c 0.08,0.13337 0.14666,0.40004 0.2,0.8 l 0,0.96 c -0.18668,0.16003 -0.34668,0.52003 -0.48,1.08 l 0.12,0.08 0.28,0 0.32,-0.76 c -1e-5,0.77337 -0.21334,1.8667 -0.64,3.28 -0.40001,1.3867 -0.60001,2.44003 -0.6,3.16 -1e-5,0.53336 0.0533,0.97336 0.16,1.32 0.0267,-0.08 0.0667,-0.21331 0.12,-0.4 0.08,-0.21331 0.21332,-0.51997 0.4,-0.92 0.18666,-0.42664 0.31999,-0.85331 0.4,-1.28 l 0.92,-4.28 c -1e-5,0.77337 -0.04,1.5067 -0.12,2.2 l -0.8,4.68 c 0.15999,0.08 0.27999,0.12003 0.36,0.12 l 0.4,0 c 0.29332,-0.66664 0.55999,-1.79997 0.8,-3.4 l 0.68,-4.92 c 0.08,-0.08 0.23999,-0.15997 0.48,-0.24 l 0.08,0.6 c -1e-5,0.3467 0.11999,0.5867 0.36,0.72 0.15999,-0.15997 0.23999,-0.46663 0.24,-0.92 l 0,-0.56 c -10e-6,-0.18663 0.10665,-0.34663 0.32,-0.48 l 0.24,0.28 -0.24,4.84 0.24,0 c 0.10665,-0.2933 0.23999,-1.18664 0.4,-2.68 0.15999,-1.51997 0.46665,-2.6133 0.92,-3.28 l 0.12,0.16 -1.16,9.08 c 0.15999,0.16003 0.39999,0.29336 0.72,0.4 0.34665,0.10669 0.69332,0.16003 1.04,0.16 l 1.04,-0.04 c 0.47998,3e-5 0.85332,0.0667 1.12,0.2 0.31998,0.08 0.57332,0.33336 0.76,0.76 l -0.76,0.84 c -0.13335,0.18669 -0.22668,0.36002 -0.28,0.52 -2e-5,0.21336 0.18665,0.41336 0.56,0.6 l -0.08,0.44 -2.96,-0.52 c -0.29335,2e-5 -0.53335,0.0267 -0.72,0.08 -0.18668,0.0534 -0.37335,0.20002 -0.56,0.44 0.21332,0.21336 0.86665,0.40002 1.96,0.56 0.95998,2e-5 1.61332,0.20002 1.96,0.6 -0.37335,2e-5 -0.73335,-0.0267 -1.08,-0.08 l -1,-0.12 -0.6,0.04 c 0.13332,0.16002 0.59998,0.32002 1.4,0.48 0.79998,0.08 1.19998,0.30669 1.2,0.68 -2e-5,0.21335 -0.0933,0.49335 -0.28,0.84 -0.29335,2e-5 -0.88002,-0.08 -1.76,-0.24 l -1.68,-0.28 c -0.32001,2e-5 -0.64001,0.04 -0.96,0.12 l -1.24,6.36 -1.2,9.12 c -0.16001,0.08 -0.38668,0.08 -0.68,0 -0.21334,-0.10666 -0.36001,-0.29333 -0.44,-0.56 0.21332,-0.93333 0.38666,-1.98666 0.52,-3.16 l 0.16,-3.72 c -0.37334,0.64001 -0.68001,2.01334 -0.92,4.12 -1e-5,0.98667 -0.12001,1.81334 -0.36,2.48 -0.21334,0.64 -0.53334,1.2 -0.96,1.68 l -0.68,-0.76 0.96,-6.8 1.48,-8.6 c -0.08,-0.23998 -0.28001,-0.29331 -0.6,-0.16 -0.24001,0.64002 -0.45334,1.65335 -0.64,3.04 -0.16001,1.36002 -0.30667,2.44001 -0.44,3.24 -0.10667,0.77335 -0.18667,1.30668 -0.24,1.6 -0.0267,0.26668 -0.0533,0.57335 -0.08,0.92 -0.13334,0.53334 -0.24001,1.05334 -0.32,1.56 -0.08,0.50668 -0.20001,0.96001 -0.36,1.36 -0.16001,0.37334 -0.29334,0.82667 -0.4,1.36 l -0.08,1 0,0.92 -0.04,0.72 c -1e-5,0.24 -0.0667,0.44 -0.2,0.6 -0.37334,-0.26666 -0.56001,-0.8 -0.56,-1.6 l 2.32,-14.32 -0.12,-0.24 -0.52,0.48 -2.72,16.64 -0.36,-0.04 -0.36,-0.52 c -0.16,0.10667 -0.28,0.24 -0.36,0.4 -0.0533,0.16 -0.16,0.17334 -0.32,0.04 -0.08,-0.18666 -0.04,-0.34666 0.12,-0.48 l 0.56,-0.36 -0.68,-0.92 2,-14.88 c -0.21334,-0.08 -0.42667,-0.11998 -0.64,-0.12 -0.24,2e-5 -0.58667,0.0533 -1.04,0.16 l -0.92,0.16 c -0.34667,2e-5 -0.62667,-0.0666 -0.84,-0.2 0,-0.39998 0.08,-0.69331 0.24,-0.88 0.16,-0.18665 0.65333,-0.50665 1.48,-0.96 l 0.68,0 c 0.37333,2e-5 0.64,-0.0267 0.8,-0.08 0.16,-0.08 0.31999,-0.25331 0.48,-0.52 l 0,-0.32 -2.16,-0.24 c -0.0267,-0.15998 0.10666,-0.33331 0.4,-0.52 0.32,-0.21331 0.48,-0.38664 0.48,-0.52 l -0.12,-0.32 c 0.24,2e-5 0.53333,-0.0933 0.88,-0.28 0.37333,-0.21331 0.61333,-0.33331 0.72,-0.36 l -1.32,-0.24 c 0.64,-0.15997 1.15999,-0.42664 1.56,-0.8 0.42666,-0.37331 0.63999,-0.89331 0.64,-1.56 -10e-6,-0.77331 0.0533,-1.51997 0.16,-2.24 0.13333,-0.71997 0.25333,-1.35997 0.36,-1.92 0.10666,-0.58663 0.23999,-1.14663 0.4,-1.68 l 0.24,0 c -10e-6,0.69337 -0.16001,1.96003 -0.48,3.8 l -0.44,3.6 c 0.45333,-0.45331 0.81333,-1.63997 1.08,-3.56 0.29333,-1.91997 0.46666,-2.91997 0.52,-3 l 0.24,-1.56 c -1e-5,-0.90663 0.26666,-1.59996 0.8,-2.08 m 1.68,0.16 c 0.23999,0.08 0.35999,0.24004 0.36,0.48 -10e-6,0.1867 -0.10668,0.49337 -0.32,0.92 l -0.28,0.68 c -0.08,-0.2133 -0.12001,-0.4133 -0.12,-0.6 -1e-5,-0.26663 0.0267,-0.50663 0.08,-0.72 0.0533,-0.2133 0.14666,-0.46663 0.28,-0.76 m 2,3.32 c -0.24001,1.81336 -0.41335,2.8667 -0.52,3.16 l -0.48,1.28 c 0.08,0.0534 0.14665,0.18669 0.2,0.4 l -0.08,0.52 c -0.0267,0.26669 -0.0267,0.49336 0,0.68 l 0.56,-1.72 c 0.08,0.0534 0.14665,0.21336 0.2,0.48 l -0.12,0.88 0.12,0.36 0.44,-2.88 -0.56,0.92 0.12,-1.88 0.16,-1.48 -0.04,-0.72 m -7.64,8.56 -0.8,0.2 c -0.16,2e-5 -0.24,0.08 -0.24,0.24 l 0.76,0.04 c 0.21333,2e-5 0.37333,-0.0666 0.48,-0.2 l -0.04,-0.16 -0.16,-0.12 m 4.52,1.2 -0.56,-0.16 -0.12,0.56 0.68,-0.4 m -6.32,2 0.72,0 c 0.37333,2e-5 0.6,-0.13331 0.68,-0.4 -0.24,2e-5 -0.52,0.0667 -0.84,0.2 -0.32,0.10669 -0.50667,0.17335 -0.56,0.2 m 8.12,0.48 c -0.24001,0.66669 -0.44001,1.45335 -0.6,2.36 l -0.16,2.68 c 0.08,-0.31998 0.15999,-0.62665 0.24,-0.92 0.08,-0.29332 0.19999,-0.70665 0.36,-1.24 0.18666,-0.55998 0.27999,-1.13331 0.28,-1.72 -10e-6,-0.37331 -0.04,-0.75998 -0.12,-1.16 m 3.96,-5.68 -0.4,-0.12 0.4,0.12"
         style="fill:#916f6f"
         id="path3182" />
    </g>
    <path
       sodipodi:type="arc"
       style="fill:#ffdd55;stroke:#000000;stroke-width:1.60000002;stroke-miterlimit:4;stroke-opacity:1;stroke-dasharray:none"
       id="path4557"
       sodipodi:cx="609.46429"
       sodipodi:cy="909.68359"
       sodipodi:rx="3.3928571"
       sodipodi:ry="3.3928571"
       d="m 612.85715,909.68359 a 3.3928571,3.3928571 0 1 1 -6.78571,0 3.3928571,3.3928571 0 1 1 6.78571,0 z"
       transform="translate(-229.39459,-382.17687)"
       inkscape:export-filename="/home/cobalt/Dropbox/Cobalt Labs/Portfolio/test1.png"
       inkscape:export-xdpi="90"
       inkscape:export-ydpi="90" />
    <path
       sodipodi:type="arc"
       style="fill:#1a1a1a;stroke:#000000;stroke-width:1.60000002;stroke-miterlimit:4;stroke-opacity:1;stroke-dasharray:none"
       id="path4559-3"
       sodipodi:cx="598.03571"
       sodipodi:cy="935.04077"
       sodipodi:rx="3.3928571"
       sodipodi:ry="3.3928571"
       d="m 601.42856,935.04077 a 3.3928571,3.3928571 0 1 1 -6.78571,0 3.3928571,3.3928571 0 1 1 6.78571,0 z"
       transform="translate(-73.39369,-346.98264)"
       inkscape:export-filename="/home/cobalt/Dropbox/Cobalt Labs/Portfolio/test1.png"
       inkscape:export-xdpi="90"
       inkscape:export-ydpi="90" />
    <path
       sodipodi:type="arc"
       style="fill:#d45500;stroke:#000000;stroke-width:1.60000002;stroke-miterlimit:4;stroke-opacity:1;stroke-dasharray:none"
       id="path4557-2"
       sodipodi:cx="609.46429"
       sodipodi:cy="909.68359"
       sodipodi:rx="3.3928571"
       sodipodi:ry="3.3928571"
       d="m 612.85715,909.68359 a 3.3928571,3.3928571 0 1 1 -6.78571,0 3.3928571,3.3928571 0 1 1 6.78571,0 z"
       transform="translate(-266.05379,-359.67062)"
       inkscape:export-filename="/home/cobalt/Dropbox/Cobalt Labs/Portfolio/test1.png"
       inkscape:export-xdpi="90"
       inkscape:export-ydpi="90" />
    <g
       id="g3956"
       transform="matrix(1.0223826,0,0,1.0223826,-13.652903,65.205089)">
      <path
         inkscape:export-ydpi="90"
         inkscape:export-xdpi="90"
         inkscape:export-filename="/home/cobalt/Dropbox/Cobalt Labs/Portfolio/test1.png"
         id="path2350"
         style="fill:none;stroke:#7d7d7d;stroke-width:0.35616681px;stroke-linecap:butt;stroke-linejoin:miter;stroke-opacity:0.66666667"
         d="m 528.85034,412.66502 c 2.95927,-4.79605 7.92498,1.62282 7.97135,4.91849 0.12567,8.93105 -10.41933,12.86906 -17.80834,11.02421 -13.21721,-3.29999 -18.34147,-18.78468 -14.07707,-30.69818 6.25817,-17.48354 27.25094,-23.94125 43.58804,-17.12994 21.77477,9.07842 29.59321,35.75137 20.18279,56.47789 -11.84206,26.0822 -44.26768,35.27173 -69.36773,23.23565 -30.39953,-14.57732 -40.96557,-52.79285 -26.28852,-82.25758 17.29641,-34.72316 61.32354,-46.669 95.14743,-29.34137 39.051,20.00543 52.37884,69.8579 32.39423,108.03727 -22.70778,43.38183 -78.39486,58.09315 -120.92712,35.44709 -47.71477,-25.40546 -63.81072,-86.93371 -38.49995,-133.81696 28.09976,-52.04931 95.47398,-69.53074 146.70681,-41.55281" />
      <path
         inkscape:export-ydpi="90"
         inkscape:export-xdpi="90"
         inkscape:export-filename="/home/cobalt/Dropbox/Cobalt Labs/Portfolio/test1.png"
         id="path2334"
         style="fill:none;stroke:#7d7d7d;stroke-width:0.35616681px;stroke-linecap:butt;stroke-linejoin:miter;stroke-opacity:0.66666667"
         d="m 384.17166,491.00255 c 1.37759,-1.78576 3.08683,0.97593 2.96805,2.28965 -0.32186,3.56008 -4.68309,4.68845 -7.54734,3.64646 -5.12348,-1.86387 -6.51832,-8.24065 -4.32487,-12.80505 3.21896,-6.69843 11.84367,-8.39468 18.06275,-5.00328 8.28904,4.52021 10.29038,15.46247 5.68168,23.32045 -5.79958,9.88847 -19.08869,12.19602 -28.57815,6.3601 -11.49301,-7.06808 -14.10736,-22.71908 -7.0385,-33.83586 8.3304,-13.10073 26.35205,-16.02229 39.09355,-7.71691 14.71056,9.58889 17.93963,29.98678 8.39532,44.35126 -10.84485,16.32184 -33.6227,19.85863 -49.60896,9.07373 -17.93416,-12.09904 -21.77886,-37.25952 -9.75213,-54.86666 13.35194,-19.54726 40.89701,-23.7 60.12436,-10.43054" />
      <path
         inkscape:export-ydpi="90"
         inkscape:export-xdpi="90"
         inkscape:export-filename="/home/cobalt/Dropbox/Cobalt Labs/Portfolio/test1.png"
         id="path2344"
         style="fill:none;stroke:#7d7d7d;stroke-width:0.35616681px;stroke-linecap:butt;stroke-linejoin:miter;stroke-opacity:0.66666667"
         d="m 464.51669,478.53348 c 2.04087,-1.88781 3.55162,1.81968 3.13766,3.39207 -1.12181,4.26107 -6.65425,4.73754 -9.92179,2.88326 -5.84485,-3.31688 -6.23159,-11.35383 -2.62886,-16.45152 5.28715,-7.48105 16.1182,-7.77282 22.98124,-2.37446 9.14734,7.19517 9.33433,20.90573 2.12006,29.51097 -9.07843,10.82882 -25.7043,10.90636 -36.04069,1.86566 -12.51875,-10.94951 -12.4845,-30.50912 -1.61126,-42.57042 12.81374,-14.21381 35.31783,-14.06647 49.10014,-1.35685 15.91222,14.67374 15.65099,40.12913 1.10246,55.62986 -16.53097,17.61291 -44.94227,17.2373 -62.15959,0.84806 -19.31524,-18.38626 -18.82491,-49.75673 -0.59366,-68.68932 20.24015,-21.01877 54.57218,-20.41349 75.21904,-0.33925" />
      <path
         inkscape:export-ydpi="90"
         inkscape:export-xdpi="90"
         inkscape:export-filename="/home/cobalt/Dropbox/Cobalt Labs/Portfolio/test1.png"
         id="path2348"
         style="fill:none;stroke:#7d7d7d;stroke-width:0.35616681px;stroke-linecap:butt;stroke-linejoin:miter;stroke-opacity:0.66666667"
         d="m 396.60348,421.90451 c -3.11233,-1.78577 -3.94269,3.31432 -2.96806,5.1729 2.6412,5.03661 9.73854,4.03907 13.31386,0.76321 6.3954,-5.85975 4.56205,-16.08186 -1.44163,-21.45481 -8.81065,-7.88503 -22.52032,-5.12568 -29.59577,3.64647 -9.43046,11.6919 -5.70813,28.99374 5.85132,37.73672 14.54639,11.00216 35.48412,6.30065 45.87768,-8.05616 12.58799,-17.38801 6.89902,-41.9841 -10.261,-54.01863 -20.22251,-14.18228 -48.49009,-7.5011 -62.1596,12.46585 -15.78198,23.05263 -8.10564,55.00008 14.67069,70.30054 25.87992,17.38536 61.51288,8.71191 78.4415,-16.87553 18.99136,-28.70525 9.31943,-68.02773 -19.08037,-86.58246 -31.52916,-20.59926 -74.54412,-9.92787 -94.72341,21.28522" />
      <path
         inkscape:export-ydpi="90"
         inkscape:export-xdpi="90"
         inkscape:export-filename="/home/cobalt/Dropbox/Cobalt Labs/Portfolio/test1.png"
         id="path2340"
         style="fill:none;stroke:#7d7d7d;stroke-width:0.35616681px;stroke-linecap:butt;stroke-linejoin:miter;stroke-opacity:0.66666667"
         d="m 279.26106,475.25075 c 1.22453,-1.22452 2.25477,1.0465 2.03524,2.03524 -0.59492,2.67943 -4.02693,3.11017 -6.10572,2.03524 -3.71846,-1.92279 -4.15407,-6.91587 -2.03523,-10.1762 3.10947,-4.78466 9.84399,-5.22891 14.24667,-2.03523 5.86808,4.25668 6.31695,12.78603 2.03523,18.31715 -5.3881,6.96036 -15.73469,7.4118 -22.38763,2.03523 -8.05759,-6.51174 -8.51059,-18.68709 -2.03523,-26.45811 7.631,-9.15786 21.64183,-9.61187 30.52859,-2.03522 10.26011,8.74753 10.71481,24.59811 2.03523,34.59906 -9.86229,11.36372 -27.55549,11.8189 -38.66955,2.03523 -12.46828,-10.9758 -12.92382,-30.51366 -2.03522,-42.74002 12.08841,-13.57358 33.47243,-14.02938 46.8105,-2.03523" />
      <path
         inkscape:export-ydpi="90"
         inkscape:export-xdpi="90"
         inkscape:export-filename="/home/cobalt/Dropbox/Cobalt Labs/Portfolio/test1.png"
         id="path2336"
         style="fill:none;stroke:#7d7d7d;stroke-width:0.35616681px;stroke-linecap:butt;stroke-linejoin:miter;stroke-opacity:0.66666667"
         d="m 332.93728,428.63612 c 1.98985,-1.37759 2.83868,2.00262 2.28964,3.30726 -1.48787,3.53549 -6.31458,3.26974 -8.90417,1.27202 -4.63218,-3.57345 -3.98288,-10.54783 -0.2544,-14.50107 5.47169,-5.80155 14.84271,-4.72877 20.09798,0.76321 7.00444,7.31996 5.4893,19.16003 -1.78084,25.69489 -9.14873,8.22347 -23.48816,6.25756 -31.2918,-2.79846 -9.45125,-10.96804 -7.0303,-27.8224 3.81608,-36.8887 12.78209,-10.68432 32.16049,-7.80587 42.48561,4.8337 11.92078,14.59289 8.58334,36.50111 -5.85132,48.08252 -16.40157,13.15954 -40.84352,9.36211 -53.67942,-6.86894 -14.39995,-18.20879 -10.14185,-45.18724 7.88656,-59.27633 20.01495,-15.64157 49.53194,-10.9223 64.87324,8.90418" />
    </g>
    <text
       xml:space="preserve"
       style="font-size:22.50729942px;font-style:normal;font-weight:normal;fill:#999999;fill-opacity:1;stroke:none;font-family:Bitstream Vera Sans"
       x="128.17548"
       y="438.74368"
       id="text4501"
       inkscape:export-filename="/home/cobalt/Dropbox/Cobalt Labs/Portfolio/test1.png"
       inkscape:export-xdpi="90"
       inkscape:export-ydpi="90"><tspan
         sodipodi:role="line"
         id="tspan4503"
         x="128.17548"
         y="438.74368">I'm also a <tspan
   style="font-style:normal;font-variant:normal;font-weight:300;font-stretch:normal;fill:#ececec;font-family:Veggieburger;-inkscape-font-specification:Veggieburger Light"
   id="tspan4030">self-taught</tspan></tspan></text>
    <text
       xml:space="preserve"
       style="font-size:15.98440075px;font-style:normal;font-weight:normal;fill:#4d4d4d;fill-opacity:1;stroke:none;font-family:Bitstream Vera Sans"
       x="120.48069"
       y="541.61102"
       id="text4407"
       inkscape:export-filename="/home/cobalt/Dropbox/Cobalt Labs/Portfolio/test1.png"
       inkscape:export-xdpi="90"
       inkscape:export-ydpi="90"><tspan
         sodipodi:role="line"
         id="tspan4409"
         x="120.48069"
         y="541.61102"><tspan
           style="fill:#999999"
           id="tspan4216">I </tspan><tspan
           style="font-size:28px;font-style:normal;font-variant:normal;font-weight:normal;font-stretch:normal;fill:#f9f9f9;font-family:Learning Curve Pro;-inkscape-font-specification:Learning Curve Pro"
           id="tspan3119">learn</tspan></tspan></text>
    <text
       xml:space="preserve"
       style="font-size:26.70509911px;font-style:normal;font-weight:normal;fill:#808080;fill-opacity:1;stroke:none;font-family:Bitstream Vera Sans"
       x="82.522179"
       y="609.04883"
       id="text4415"
       inkscape:export-filename="/home/cobalt/Dropbox/Cobalt Labs/Portfolio/test1.png"
       inkscape:export-xdpi="90"
       inkscape:export-ydpi="90"><tspan
         sodipodi:role="line"
         id="tspan4417"
         x="82.522179"
         y="609.04883">with</tspan></text>
    <text
       xml:space="preserve"
       style="font-size:22.25646973px;font-style:normal;font-weight:normal;fill:#999999;fill-opacity:1;stroke:none;font-family:Bitstream Vera Sans"
       x="129.58327"
       y="646.60681"
       id="text4419"
       inkscape:export-filename="/home/cobalt/Dropbox/Cobalt Labs/Portfolio/test1.png"
       inkscape:export-xdpi="90"
       inkscape:export-ydpi="90"><tspan
         sodipodi:role="line"
         id="tspan4421"
         x="129.58327"
         y="646.60681">to better incorporate</tspan></text>
    <text
       xml:space="preserve"
       style="font-size:30.60636711px;font-style:normal;font-weight:normal;fill:#808080;fill-opacity:1;stroke:none;font-family:Bitstream Vera Sans"
       x="413.52518"
       y="756.14661"
       id="text4427"
       inkscape:export-filename="/home/cobalt/Dropbox/Cobalt Labs/Portfolio/test1.png"
       inkscape:export-xdpi="90"
       inkscape:export-ydpi="90"><tspan
         sodipodi:role="line"
         id="tspan4429"
         x="413.52518"
         y="756.14661">into my </tspan></text>
    <text
       xml:space="preserve"
       style="font-size:38.13869476px;font-style:normal;font-weight:normal;fill:#000000;fill-opacity:1;stroke:none;font-family:Bitstream Vera Sans"
       x="522.75439"
       y="716.15497"
       id="text4431"
       inkscape:export-filename="/home/cobalt/Dropbox/Cobalt Labs/Portfolio/test1.png"
       inkscape:export-xdpi="90"
       inkscape:export-ydpi="90"><tspan
         sodipodi:role="line"
         id="tspan4433"
         x="522.75439"
         y="716.15497"
         style="font-style:normal;font-variant:normal;font-weight:normal;font-stretch:normal;fill:#ffffff;font-family:Courier New;-inkscape-font-specification:Courier New">Programs</tspan></text>
    <text
       xml:space="preserve"
       style="font-size:35.84322739px;font-style:normal;font-weight:normal;fill:#000000;fill-opacity:1;stroke:none;font-family:Bitstream Vera Sans"
       x="154.78136"
       y="622.9881"
       id="text4435"
       inkscape:export-filename="/home/cobalt/Dropbox/Cobalt Labs/Portfolio/test1.png"
       inkscape:export-xdpi="90"
       inkscape:export-ydpi="90"><tspan
         sodipodi:role="line"
         id="tspan4437"
         x="154.78136"
         y="622.9881"
         style="font-style:normal;font-variant:normal;font-weight:normal;font-stretch:normal;fill:#ececec;font-family:GrutchShaded;-inkscape-font-specification:GrutchShaded">Art</tspan></text>
    <text
       xml:space="preserve"
       style="font-size:42.64445877px;font-style:normal;font-weight:normal;fill:#000000;fill-opacity:1;stroke:none;font-family:Bitstream Vera Sans"
       x="285.18979"
       y="714.55145"
       id="text4447"
       inkscape:export-filename="/home/cobalt/Dropbox/Cobalt Labs/Portfolio/test1.png"
       inkscape:export-xdpi="90"
       inkscape:export-ydpi="90"><tspan
         sodipodi:role="line"
         id="tspan4449"
         x="285.18979"
         y="714.55145"
         style="font-style:normal;font-variant:normal;font-weight:normal;font-stretch:normal;fill:#ececec;font-family:Garuda;-inkscape-font-specification:Garuda">Usability</tspan></text>
    <text
       xml:space="preserve"
       style="font-size:40px;font-style:normal;font-weight:normal;fill:#b3b3b3;fill-opacity:1;stroke:none;font-family:Bitstream Vera Sans"
       x="241.49506"
       y="688.97028"
       id="text4451"
       inkscape:export-filename="/home/cobalt/Dropbox/Cobalt Labs/Portfolio/test1.png"
       inkscape:export-xdpi="90"
       inkscape:export-ydpi="90"><tspan
         sodipodi:role="line"
         id="tspan4453"
         x="241.49506"
         y="688.97028"
         style="font-style:normal;font-variant:normal;font-weight:bold;font-stretch:normal;font-family:Brushstroke Plain;-inkscape-font-specification:Brushstroke Plain Medium">&amp;</tspan></text>
    <text
       xml:space="preserve"
       style="font-size:40px;font-style:normal;font-weight:normal;fill:#999999;fill-opacity:1;stroke:none;font-family:Bitstream Vera Sans"
       x="218.34485"
       y="700.84674"
       id="text4455"
       inkscape:export-filename="/home/cobalt/Dropbox/Cobalt Labs/Portfolio/test1.png"
       inkscape:export-xdpi="90"
       inkscape:export-ydpi="90"><tspan
         sodipodi:role="line"
         id="tspan4457"
         x="218.34485"
         y="700.84674">,</tspan></text>
    <g
       id="g3141"
       transform="translate(37.010153,94)"
       style="fill:#999999">
      <text
         inkscape:export-ydpi="90"
         inkscape:export-xdpi="90"
         inkscape:export-filename="/home/cobalt/Dropbox/Cobalt Labs/Portfolio/test1.png"
         id="text4443"
         y="657.60144"
         x="64.44915"
         style="font-size:27.47515488px;font-style:normal;font-weight:normal;fill:#999999;fill-opacity:1;stroke:none;font-family:Bitstream Vera Sans"
         xml:space="preserve"><tspan
           y="657.60144"
           x="64.44915"
           id="tspan4445"
           sodipodi:role="line">Des gn</tspan></text>
      <text
         transform="scale(1.1486191,0.87061064)"
         id="text5739"
         y="755.00726"
         x="101.78942"
         style="font-size:24.44251823px;font-style:normal;font-weight:normal;fill:#999999;fill-opacity:1;stroke:none;font-family:Bitstream Vera Sans"
         xml:space="preserve"><tspan
           y="755.00726"
           x="101.78942"
           id="tspan5741"
           sodipodi:role="line">l</tspan></text>
    </g>
    <text
       xml:space="preserve"
       style="font-size:54.70705414px;font-style:normal;font-weight:normal;fill:#ffffff;fill-opacity:1;stroke:none;font-family:Bitstream Vera Sans"
       x="149.45511"
       y="726.3938"
       id="text5757"><tspan
         sodipodi:role="line"
         id="tspan5759"
         x="149.45511"
         y="726.3938">.</tspan></text>
    <text
       xml:space="preserve"
       style="font-size:31.88121605px;font-style:normal;font-weight:normal;fill:#ececec;fill-opacity:1;stroke:none;font-family:Bitstream Vera Sans"
       x="70.733673"
       y="577.19385"
       id="text3115"><tspan
         sodipodi:role="line"
         id="tspan3117"
         x="70.733673"
         y="577.19385"
         style="font-style:italic;font-variant:normal;font-weight:bold;font-stretch:normal;font-family:Geo;-inkscape-font-specification:Geo Bold Italic">experiment</tspan></text>
    <text
       xml:space="preserve"
       style="font-size:38.78934479px;font-style:normal;font-weight:normal;fill:#cccccc;fill-opacity:1;stroke:none;font-family:Bitstream Vera Sans"
       x="175.09683"
       y="554.05103"
       id="text3121"><tspan
         sodipodi:role="line"
         id="tspan3123"
         x="175.09683"
         y="554.05103"
         style="font-style:normal;font-variant:normal;font-weight:normal;font-stretch:normal;fill:#cccccc;font-family:Learning Curve Pro;-inkscape-font-specification:Learning Curve Pro">&amp;</tspan></text>
    <g
       id="g3133"
       style="fill:#cccccc"
       transform="translate(36,96)">
      <text
         inkscape:export-ydpi="90"
         inkscape:export-xdpi="90"
         inkscape:export-filename="/home/cobalt/Dropbox/Cobalt Labs/Portfolio/test1.png"
         id="text4439"
         y="600.52026"
         x="44.065319"
         style="font-size:54.35400009px;font-style:normal;font-weight:normal;fill:#cccccc;fill-opacity:1;stroke:none;font-family:Bitstream Vera Sans"
         xml:space="preserve"><tspan
           style="font-style:normal;font-variant:normal;font-weight:bold;font-stretch:normal;fill:#cccccc;font-family:Impact;-inkscape-font-specification:Impact Bold"
           y="600.52026"
           x="44.065319"
           id="tspan4441"
           sodipodi:role="line">Sty </tspan></text>
      <text
         transform="scale(0.73805476,1.354913)"
         id="text3125"
         y="455.1199"
         x="157.7506"
         style="font-size:54.19652176px;font-style:normal;font-weight:normal;fill:#cccccc;fill-opacity:1;stroke:none;font-family:Bitstream Vera Sans"
         xml:space="preserve"><tspan
           style="font-style:normal;font-variant:normal;font-weight:bold;font-stretch:normal;fill:#cccccc;font-family:Impact;-inkscape-font-specification:Impact Bold"
           y="455.1199"
           x="157.7506"
           id="tspan3127"
           sodipodi:role="line">l</tspan></text>
      <text
         id="text3129"
         y="599.64783"
         x="128.57143"
         style="font-size:40px;font-style:normal;font-weight:normal;fill:#cccccc;fill-opacity:1;stroke:none;font-family:Bitstream Vera Sans"
         xml:space="preserve"><tspan
           style="font-size:55px;font-style:normal;font-variant:normal;font-weight:bold;font-stretch:normal;fill:#cccccc;font-family:Impact;-inkscape-font-specification:Impact Bold"
           y="599.64783"
           x="128.57143"
           id="tspan3131"
           sodipodi:role="line">e</tspan></text>
    </g>
    <path
       d="m 122.10979,631.50126 c -3.0255,4.9034 -8.10236,-1.65914 -8.14977,-5.02857 -0.12848,-9.13095 10.65255,-13.15711 18.20694,-11.27097 13.51305,3.37386 18.752,19.20513 14.39215,31.38529 -6.39824,17.87487 -27.86088,24.47712 -44.56365,17.51335 -22.262146,-9.28162 -30.255583,-36.55158 -20.634534,-57.74201 12.107116,-26.66599 45.258504,-36.0612 70.920364,-23.75572 31.07995,14.90359 41.88248,53.97449 26.87692,84.09871 -17.68355,35.50036 -62.69612,47.71358 -97.277075,29.99811 C 41.956072,676.24625 28.32992,625.27795 48.761838,586.24403 71.977877,541.8912 128.91138,526.8506 172.39562,550.00354 c 48.78275,25.9741 65.23897,88.87951 39.36168,136.81213 -28.72871,53.21431 -97.61094,71.08702 -149.99049,42.48287"
       style="fill:none;stroke:#7d7d7d;stroke-width:0.36413875px;stroke-linecap:butt;stroke-linejoin:miter;stroke-opacity:0.66666667"
       id="path2350-7"
       inkscape:export-filename="/home/cobalt/Dropbox/Cobalt Labs/Portfolio/test1.png"
       inkscape:export-xdpi="90"
       inkscape:export-ydpi="90" />
    <path
       d="m 187.8834,564.1585 c -2.08655,1.93006 -3.63112,-1.86041 -3.20789,-3.468 1.14692,-4.35644 6.80319,-4.84358 10.14387,-2.94779 5.97567,3.39112 6.37106,11.60796 2.6877,16.81975 -5.40549,7.64849 -16.47897,7.94679 -23.49562,2.4276 -9.35209,-7.35621 -9.54326,-21.37365 -2.16752,-30.1715 9.28163,-11.0712 26.27963,-11.15047 36.84738,-1.90742 12.79895,11.19459 12.76393,31.192 1.64732,43.52326 -13.10054,14.53195 -36.10833,14.38131 -50.19913,1.38722 -16.26837,-15.00218 -16.0013,-41.02733 -1.12713,-56.875 16.90097,-18.00713 45.94819,-17.62312 63.55088,-0.86704 19.74757,18.79779 19.24626,50.87041 0.60695,70.22676 -20.69318,21.48923 -55.79365,20.8704 -76.90264,0.34684"
       style="fill:none;stroke:#7d7d7d;stroke-width:0.36413875px;stroke-linecap:butt;stroke-linejoin:miter;stroke-opacity:0.66666667"
       id="path2344-4"
       inkscape:export-filename="/home/cobalt/Dropbox/Cobalt Labs/Portfolio/test1.png"
       inkscape:export-xdpi="90"
       inkscape:export-ydpi="90" />
    <path
       d="m 257.31668,622.05497 c 3.18199,1.82574 4.03094,-3.3885 3.0345,-5.28868 -2.70032,-5.14935 -9.95652,-4.12948 -13.61186,-0.7803 -6.53855,5.99091 -4.66416,16.44182 1.47389,21.93503 9.00786,8.06152 23.02439,5.24041 30.2582,-3.72809 9.64154,-11.95359 5.8359,-29.64269 -5.98228,-38.58136 -14.87198,-11.24842 -36.27835,-6.44168 -46.90454,8.23647 -12.86975,17.7772 -7.05344,42.92382 10.49066,55.22771 20.67515,14.49972 49.57543,7.66899 63.5509,-12.74487 16.13522,-23.56861 8.28706,-56.23112 -14.99906,-71.87405 -26.45918,-17.77449 -62.8897,-8.9069 -80.19723,17.25325 -19.41643,29.34775 -9.52802,69.55037 19.50744,88.5204 32.23487,21.06033 76.21261,10.15008 96.84357,-21.76164"
       style="fill:none;stroke:#7d7d7d;stroke-width:0.36413875px;stroke-linecap:butt;stroke-linejoin:miter;stroke-opacity:0.66666667"
       id="path2348-6"
       inkscape:export-filename="/home/cobalt/Dropbox/Cobalt Labs/Portfolio/test1.png"
       inkscape:export-xdpi="90"
       inkscape:export-ydpi="90" />
    <path
       d="m 318.4079,619.17269 c -2.03439,1.40842 -2.90222,-2.04744 -2.34089,-3.38129 1.52117,-3.61462 6.45592,-3.34292 9.10347,-1.30049 4.73586,3.65344 4.07203,10.78392 0.26009,14.82564 -5.59416,5.93141 -15.17493,4.83462 -20.54782,-0.78029 -7.16122,-7.4838 -5.61217,-19.58888 1.8207,-26.27001 9.3535,-8.40753 24.01388,-6.39762 31.99219,2.8611 9.66279,11.21353 7.18766,28.44514 -3.90149,37.71437 -13.06819,10.92346 -32.88033,7.98058 -43.43655,-4.9419 -12.1876,-14.91951 -8.77546,-37.3181 5.98228,-49.15873 16.76868,-13.45408 41.75771,-9.57166 54.88091,7.02269 14.72226,18.61635 10.36885,46.19865 -8.06308,60.60309 -20.46294,15.99166 -50.6406,11.16677 -66.32527,-9.10348"
       style="fill:none;stroke:#7d7d7d;stroke-width:0.36413875px;stroke-linecap:butt;stroke-linejoin:miter;stroke-opacity:0.66666667"
       id="path2336-0"
       inkscape:export-filename="/home/cobalt/Dropbox/Cobalt Labs/Portfolio/test1.png"
       inkscape:export-xdpi="90"
       inkscape:export-ydpi="90" />
    <text
       xml:space="preserve"
       style="font-size:56.97021484px;font-style:normal;font-weight:normal;fill:#e6e6e6;fill-opacity:1;stroke:none;font-family:Bitstream Vera Sans"
       x="339.44519"
       y="500.51721"
       id="text4026"><tspan
         sodipodi:role="line"
         id="tspan4028"
         x="339.44519"
         y="500.51721"
         style="font-style:normal;font-variant:normal;font-weight:normal;font-stretch:normal;fill:#e6e6e6;font-family:Destroy;-inkscape-font-specification:Destroy">Design</tspan></text>
  </g>
</svg>
